<svg width="508" height="508" viewBox="0 0 508 508" fill="none" xmlns="http://www.w3.org/2000/svg">
<g clip-path="url(#clip0)">
<path fill-rule="evenodd" clip-rule="evenodd" d="M250.19 234.617L247.782 202.267C247.782 202.267 238.676 174.559 233.246 175.04C228.068 176.149 237.362 185.447 238.062 192.892C233.602 191.646 234.284 198.795 234.284 198.795C234.284 198.795 230.709 197.929 230.557 203.61C226.809 204.908 228.204 211.749 228.204 211.749C228.204 211.749 231.539 229.7 236.726 242.277C236.726 242.277 247.13 254.338 250.19 234.617Z" fill="#C99382"/>
<path fill-rule="evenodd" clip-rule="evenodd" d="M250.378 223.89C250.378 223.89 251.228 213.139 251.354 207.598C251.48 202.057 255.706 192.87 251.288 194.632C248.316 195.816 247.6 201.648 246.829 205.899C246.06 210.152 237.174 218.79 240.851 226.775C243.334 232.172 248.637 233.897 250.378 223.89Z" fill="#C99382"/>
<path d="M237.757 192.405C238.026 192.236 238.381 192.318 238.55 192.588L238.73 192.883C238.871 193.118 239.028 193.386 239.197 193.683C239.68 194.53 240.162 195.436 240.613 196.368C241.084 197.342 241.494 198.288 241.824 199.188C243.27 203.129 243.086 205.839 240.37 206.373C240.059 206.434 239.756 206.231 239.695 205.919C239.633 205.607 239.837 205.305 240.149 205.243C241.836 204.912 241.971 202.929 240.743 199.584C240.428 198.723 240.032 197.811 239.577 196.869C239.138 195.963 238.668 195.079 238.197 194.253L237.848 193.653L237.574 193.198C237.405 192.929 237.487 192.573 237.757 192.405Z" fill="#9B6160"/>
<path d="M234.292 198.652C234.532 198.443 234.896 198.469 235.105 198.708L235.318 198.96C235.485 199.16 235.671 199.388 235.871 199.639C236.443 200.357 237.014 201.124 237.548 201.907C238.058 202.656 238.508 203.383 238.882 204.076C240.458 207 240.606 209.174 238.487 209.945C236.847 210.541 235.282 209.57 233.834 207.686C233.448 207.183 233.097 206.647 232.787 206.11L232.619 205.812C232.519 205.63 232.444 205.485 232.396 205.385C232.258 205.099 232.378 204.754 232.664 204.616C232.95 204.478 233.294 204.598 233.432 204.885L233.512 205.043C233.578 205.17 233.669 205.337 233.784 205.534C234.07 206.03 234.394 206.525 234.747 206.985C235.919 208.511 237.081 209.231 238.094 208.864C239.246 208.444 239.147 206.995 237.869 204.622C237.515 203.967 237.086 203.273 236.597 202.556C236.08 201.797 235.525 201.053 234.97 200.356L234.602 199.901L234.236 199.463C234.027 199.224 234.053 198.86 234.292 198.652Z" fill="#9B6160"/>
<path d="M231.142 204.056C231.253 203.758 231.584 203.607 231.882 203.718C232.885 204.09 233.852 205.12 234.813 206.868C236.882 210.628 237.053 213.226 235.304 213.82C234.664 214.038 233.914 213.88 233.19 213.447L233.029 213.346L233.163 213.618C234.016 215.297 235.111 216.649 236.537 217.949L236.827 218.208L237.199 218.53L238.082 219.261C238.334 219.466 238.713 219.776 238.856 219.894C242.034 222.522 243.259 224.628 243.245 228.863C243.243 229.181 242.985 229.438 242.667 229.437C242.349 229.435 242.092 229.177 242.093 228.859C242.106 225.129 241.12 223.32 238.385 221L236.658 219.579C236.446 219.401 236.255 219.238 236.067 219.072C233.456 216.776 231.814 214.335 230.759 210.487C230.57 209.797 231.558 209.45 231.842 210.106C232.613 211.883 234.145 212.998 234.934 212.73C235.689 212.473 235.568 210.627 233.805 207.423C232.963 205.894 232.176 205.055 231.481 204.796C231.183 204.686 231.031 204.354 231.142 204.056Z" fill="#9B6160"/>
<path d="M247.241 200.424C247.33 200.118 247.65 199.943 247.955 200.032C248.23 200.112 248.399 200.38 248.365 200.654L248.346 200.746L246.031 208.672C246.006 208.759 245.961 208.838 245.899 208.904L245.709 209.115C245.581 209.262 245.417 209.458 245.225 209.696C244.712 210.337 244.198 211.054 243.719 211.827C242.272 214.162 241.451 216.492 241.566 218.625C241.597 219.21 241.7 219.775 241.877 220.316C241.977 220.618 241.812 220.944 241.51 221.042C241.208 221.142 240.883 220.977 240.784 220.675C240.574 220.035 240.453 219.371 240.416 218.687C240.287 216.276 241.18 213.737 242.74 211.221C243.245 210.406 243.786 209.652 244.327 208.977L244.601 208.642L244.963 208.222L247.241 200.424Z" fill="#9B6160"/>
<path fill-rule="evenodd" clip-rule="evenodd" d="M377.105 181.384C377.105 181.384 388.204 175.709 384.856 163.844C389.95 153.865 384.369 147.468 384.369 147.468C384.369 147.468 384.517 134.193 375.747 133.21C370.579 119.45 354.961 124.369 354.961 124.369C354.961 124.369 345.283 116.017 330.823 126.707C320.457 126.8 320.555 121.657 317.131 125.143C313.707 128.629 311.992 136.96 316.342 140.375C308.594 143.468 315.244 155.826 315.244 155.826C315.244 155.826 312.548 162.805 321.238 168.341C329.925 173.878 332.833 190.718 347.372 196.381C361.357 201.833 376.453 197.717 377.105 181.384Z" fill="#7D4556"/>
<path fill-rule="evenodd" clip-rule="evenodd" d="M370.131 207.923L368.286 183.188L337.867 186.183L336.448 208.546C336.448 208.546 370.932 207.107 370.131 207.923Z" fill="#C99382"/>
<path fill-rule="evenodd" clip-rule="evenodd" d="M362.871 148.059C362.871 148.059 360.62 156.043 366.744 158.379C365.047 168.746 369.619 168.108 369.619 168.108C369.619 168.108 377.412 159.293 381.896 167.667C386.154 175.623 377.299 186.436 369.831 184.235C355.999 203.672 330.707 203.169 323.149 189.43C318.559 181.083 321.113 169.498 320.8 163.964C320.031 150.366 322.767 146.426 322.767 146.426C322.767 146.426 327.866 147.835 333.763 143.936C339.556 148.792 348.506 144.868 348.506 144.868C348.506 144.868 353.886 152.652 362.871 148.059Z" fill="#C99382"/>
<path fill-rule="evenodd" clip-rule="evenodd" d="M374.114 212.835L372.191 207.234L334.458 208.146L332.925 213.441C332.925 213.441 306.648 222.772 302.088 234.076C297.384 245.736 309.076 299.842 309.298 314.079C302.826 331.06 312.139 336.273 312.139 336.273L388.662 335.59C388.662 335.59 397.443 329.815 389.978 318.107C393.114 297.217 414.659 239.307 405.786 231.998C392.289 220.883 374.114 212.835 374.114 212.835Z" fill="#ADC6FF"/>
<path fill-rule="evenodd" clip-rule="evenodd" d="M399.902 312.729C399.902 312.729 387.188 278.982 384.842 263.55C382.499 248.118 387.671 219.374 406.926 233.183C424.702 246.27 442.863 314.051 432.072 336.634C419.629 362.673 386.348 378.527 386.348 378.527C386.348 378.527 369.581 374.985 373.101 357.293C389.855 338.014 402.601 327.101 399.902 312.729Z" fill="#ADC6FF"/>
<path fill-rule="evenodd" clip-rule="evenodd" d="M261.858 245.765C258.976 237.579 253.853 236.617 253.853 236.617L250.771 230.162L233.344 238.527C233.8 241.118 233.878 241.836 234.329 243.994C234.868 246.569 232.544 245.882 233.474 253.22C236.404 276.343 255.478 323.961 278.316 314.403C299.412 305.571 320.213 263.684 320.213 263.684C320.213 263.684 324.983 221.646 306.641 227.698C288.61 246.721 274.777 272.925 274.777 272.925L261.858 245.765Z" fill="#ADC6FF"/>
<path fill-rule="evenodd" clip-rule="evenodd" d="M389.809 347.353L388.662 335.591L312.14 336.272L311.747 348.049C311.747 348.049 352.239 349.734 389.809 347.353Z" fill="#597EF7"/>
<path fill-rule="evenodd" clip-rule="evenodd" d="M423.594 658.326C423.594 658.326 402.392 368.589 389.809 347.354C327.313 348.947 311.747 348.077 311.747 348.077C311.747 348.077 303.948 378.111 303.706 422.074C303.534 453.291 313.159 658.266 313.159 658.266L339.755 659.021L349.854 421.492L352.741 422.042L398.526 659.306L423.594 658.326Z" fill="#6E44FF"/>
<path fill-rule="evenodd" clip-rule="evenodd" d="M341.51 165.418C341.559 170.963 346.096 175.42 351.643 175.37C357.188 175.321 361.643 170.785 361.594 165.24C361.544 159.695 357.008 155.238 351.462 155.287C345.917 155.338 341.461 159.873 341.51 165.418Z" fill="white"/>
<path d="M351.455 154.579C345.519 154.634 340.75 159.489 340.803 165.424C340.855 171.361 345.712 176.131 351.649 176.077C357.586 176.024 362.352 171.17 362.299 165.234C362.25 159.395 357.551 154.684 351.747 154.581L351.455 154.579ZM351.468 155.994C356.623 155.949 360.839 160.091 360.885 165.246C360.93 170.401 356.792 174.617 351.637 174.662C346.481 174.709 342.263 170.567 342.218 165.412C342.173 160.348 346.17 156.19 351.198 156.001L351.468 155.994Z" fill="#7D4556"/>
<path fill-rule="evenodd" clip-rule="evenodd" d="M317.149 164.696C317.198 170.241 321.733 174.696 327.28 174.646C332.825 174.597 337.28 170.061 337.231 164.516C337.182 158.971 332.647 154.514 327.1 154.563C321.555 154.614 317.099 159.15 317.149 164.696Z" fill="white"/>
<path d="M327.093 153.856C321.158 153.91 316.388 158.766 316.441 164.702C316.494 170.638 321.349 175.407 327.286 175.353C333.222 175.301 337.991 170.446 337.939 164.51C337.887 158.671 333.189 153.96 327.385 153.857L327.093 153.856ZM327.106 155.271C332.262 155.225 336.478 159.367 336.524 164.523C336.569 169.677 332.428 173.893 327.273 173.938C322.118 173.985 317.901 169.844 317.856 164.689C317.811 159.625 321.808 155.466 326.836 155.277L327.106 155.271Z" fill="#7D4556"/>
<path d="M339.132 163.566C339.41 163.72 339.511 164.07 339.356 164.348L339.218 164.603C339.107 164.812 338.983 165.051 338.849 165.315C338.466 166.07 338.082 166.875 337.725 167.696C337.393 168.46 337.1 169.199 336.857 169.898C336.054 172.213 335.89 173.883 336.432 174.485C336.984 175.098 337.988 175.389 339.331 175.381C340.158 175.376 341.054 175.259 341.953 175.067C342.169 175.02 342.374 174.972 342.567 174.923L343.08 174.783C343.12 174.771 343.152 174.762 343.174 174.754C343.477 174.657 343.801 174.824 343.898 175.127C343.995 175.43 343.828 175.754 343.525 175.851L343.151 175.96C342.862 176.039 342.54 176.118 342.194 176.192C341.224 176.4 340.253 176.527 339.338 176.532C337.698 176.542 336.394 176.164 335.577 175.255C334.634 174.208 334.827 172.239 335.77 169.521C336.023 168.791 336.326 168.026 336.67 167.237C337.037 166.393 337.429 165.568 337.822 164.794L338.084 164.287L338.349 163.791C338.503 163.513 338.854 163.412 339.132 163.566Z" fill="#9B6160"/>
<path fill-rule="evenodd" clip-rule="evenodd" d="M348.551 179.912C348.551 179.912 339.271 181.057 332.624 180.054C332.624 180.054 334.542 186.674 341.171 185.819C347.058 185.059 348.551 179.912 348.551 179.912Z" fill="white"/>
<path d="M348.458 179.15L347.693 179.235L346.916 179.312C346.51 179.35 346.078 179.388 345.625 179.424C342.818 179.646 339.966 179.751 337.312 179.673C335.629 179.623 334.093 179.5 332.738 179.295C332.184 179.212 331.731 179.73 331.887 180.268C331.949 180.484 332.076 180.837 332.278 181.283C332.611 182.02 333.04 182.756 333.577 183.446C335.378 185.762 337.93 187.011 341.269 186.58C343.859 186.246 345.874 185.106 347.364 183.42C348.445 182.199 349.042 180.976 349.289 180.126C349.442 179.596 349.004 179.082 348.458 179.15ZM347.322 180.813L347.129 181.155C346.873 181.582 346.57 182.003 346.215 182.403C344.961 183.821 343.278 184.773 341.073 185.058C338.314 185.414 336.276 184.416 334.788 182.504L334.567 182.206C334.353 181.906 334.161 181.596 333.99 181.282L333.834 180.981L334.18 181.018C335.148 181.113 336.179 181.175 337.266 181.207C339.984 181.287 342.888 181.18 345.746 180.954L346.638 180.878L347.322 180.813Z" fill="#9B6160"/>
<path d="M334.338 151.669C334.72 151.485 335.178 151.645 335.363 152.027C335.546 152.409 335.386 152.868 335.005 153.052C331.738 154.626 327.691 155.05 323.57 153.957C323.16 153.849 322.916 153.428 323.025 153.018C323.134 152.609 323.554 152.365 323.963 152.474C327.726 153.472 331.397 153.087 334.338 151.669Z" fill="#7D4556"/>
<path d="M336.898 161.686C338.317 161.198 339.78 161.224 341.139 161.556C341.509 161.647 341.786 161.739 341.947 161.805C342.241 161.925 342.382 162.262 342.262 162.556C342.142 162.85 341.806 162.991 341.511 162.871L341.364 162.816C341.242 162.776 341.073 162.725 340.865 162.674C339.703 162.39 338.455 162.368 337.272 162.775C336.971 162.878 336.644 162.718 336.541 162.417C336.437 162.117 336.597 161.79 336.898 161.686Z" fill="#7D4556"/>
<path d="M354.076 164.198C354.072 163.807 354.386 163.488 354.778 163.484C355.134 163.481 355.434 163.745 355.484 164.09L355.491 164.186C355.494 164.758 355.385 165.542 355.05 166.339C354.457 167.742 353.332 168.63 351.638 168.644C349.959 168.66 348.776 167.862 348.069 166.566C347.664 165.824 347.49 165.094 347.446 164.578C347.412 164.188 347.701 163.846 348.09 163.812C348.447 163.782 348.765 164.022 348.841 164.362L348.871 164.582C348.884 164.661 348.904 164.765 348.934 164.887C349.016 165.231 349.14 165.574 349.311 165.888C349.782 166.752 350.506 167.24 351.625 167.229C352.708 167.22 353.36 166.707 353.744 165.79C353.889 165.449 353.984 165.076 354.034 164.701L354.062 164.452C354.065 164.416 354.069 164.381 354.072 164.35L354.076 164.198Z" fill="#7D4556"/>
<path d="M329.918 164.414C329.915 164.024 330.229 163.704 330.619 163.701C330.978 163.697 331.276 163.961 331.326 164.306L331.333 164.402C331.336 164.975 331.228 165.759 330.892 166.555C330.301 167.958 329.175 168.845 327.48 168.86C325.802 168.876 324.619 168.078 323.912 166.782C323.506 166.04 323.332 165.31 323.287 164.794C323.254 164.404 323.542 164.062 323.932 164.028C324.321 163.995 324.664 164.283 324.697 164.673C324.704 164.747 324.727 164.899 324.776 165.103C324.858 165.447 324.982 165.79 325.154 166.104C325.625 166.968 326.348 167.456 327.467 167.445C328.55 167.436 329.202 166.922 329.588 166.006C329.731 165.666 329.825 165.293 329.877 164.918L329.905 164.669C329.912 164.596 329.916 164.532 329.917 164.481L329.918 164.414Z" fill="#7D4556"/>
<path d="M371.51 164.384C371.934 164.38 372.283 164.72 372.286 165.144C372.29 165.532 372.004 165.856 371.63 165.91L371.524 165.918L361.601 166.007C361.177 166.011 360.828 165.67 360.825 165.247C360.821 164.858 361.107 164.535 361.481 164.48L361.587 164.472L371.51 164.384Z" fill="#7D4556"/>
<path d="M345.108 151.596C345.297 151.216 345.757 151.061 346.137 151.25C347.251 151.803 348.604 152.23 350.143 152.539C352.488 153.009 354.947 153.164 357.064 153.134L357.904 153.111C358.327 153.088 358.687 153.413 358.712 153.836C358.733 154.259 358.408 154.621 357.985 154.643L357.628 154.657C355.297 154.725 352.516 154.58 349.841 154.043C348.18 153.71 346.702 153.244 345.454 152.624C345.075 152.436 344.92 151.975 345.108 151.596Z" fill="#7D4556"/>
<path d="M376.114 167.48C377.818 167.252 378.965 167.734 379.564 168.703C379.864 169.185 379.966 169.66 379.97 170.008C379.97 170.326 379.716 170.586 379.398 170.589C379.113 170.591 378.873 170.385 378.827 170.112L378.816 170.018C378.816 169.863 378.756 169.583 378.587 169.31C378.234 168.743 377.539 168.45 376.266 168.621C375.027 168.787 373.948 169.649 373.267 170.859C372.981 171.366 372.801 171.886 372.752 172.305C372.717 172.611 372.759 172.772 372.77 172.78C373.902 173.52 374.752 174.528 374.978 175.587C375.271 176.946 374.534 178.192 372.777 179.142C372.495 179.293 372.145 179.189 371.997 178.91C371.845 178.63 371.948 178.281 372.226 178.13C373.571 177.404 374.026 176.634 373.853 175.829C373.701 175.114 373.041 174.333 372.138 173.743C370.314 172.55 372.925 167.907 376.114 167.48Z" fill="#9B6160"/>
<path d="M374.939 171.74C376.389 171.981 377.328 172.714 377.215 174.066C377.19 174.383 376.911 174.619 376.594 174.593C376.308 174.569 376.089 174.342 376.068 174.066V173.972C376.118 173.369 375.684 173.03 374.749 172.875C374.368 172.812 373.962 172.793 373.57 172.804L373.285 172.817C373.197 172.823 373.137 172.829 373.105 172.832C372.791 172.868 372.505 172.641 372.47 172.326C372.435 172.01 372.66 171.724 372.974 171.688L373.207 171.669C373.761 171.632 374.361 171.643 374.939 171.74Z" fill="#9B6160"/>
<path d="M341.184 192.079C341.469 192.089 341.7 192.304 341.736 192.579L341.74 192.715L341.739 192.757C341.734 193.053 341.737 193.429 341.756 193.854C341.782 194.473 341.836 195.08 341.924 195.645C342.111 196.855 342.435 197.72 342.84 198.068L342.928 198.134C343.194 198.308 343.268 198.665 343.094 198.931C342.92 199.197 342.564 199.271 342.298 199.098C341.488 198.568 341.034 197.422 340.787 195.821C340.641 194.882 340.587 193.918 340.585 193.086L340.59 192.636C340.6 192.319 340.866 192.07 341.184 192.079Z" fill="#9B6160"/>
<path d="M339.031 193.892C339.349 193.914 339.588 194.189 339.567 194.506L339.549 194.86C339.519 195.594 339.521 196.384 339.578 197.119C339.619 197.658 339.687 198.127 339.784 198.502C339.864 198.809 339.679 199.123 339.371 199.203C339.064 199.283 338.75 199.098 338.67 198.79C338.554 198.341 338.476 197.808 338.43 197.207C338.382 196.577 338.37 195.919 338.384 195.284L338.398 194.813C338.406 194.634 338.413 194.502 338.418 194.427C338.44 194.11 338.714 193.871 339.031 193.892Z" fill="#9B6160"/>
<path d="M343.651 194.659C343.961 194.589 344.268 194.784 344.338 195.095L344.434 195.474C344.446 195.516 344.458 195.561 344.471 195.608C344.581 195.997 344.709 196.386 344.853 196.746C345.109 197.39 345.388 197.856 345.623 198.045L345.692 198.093C345.966 198.254 346.057 198.607 345.896 198.881C345.736 199.155 345.383 199.247 345.109 199.086C344.571 198.77 344.156 198.106 343.783 197.172C343.623 196.771 343.483 196.346 343.363 195.92L343.258 195.526C343.24 195.454 343.225 195.394 343.215 195.346C343.145 195.036 343.34 194.728 343.651 194.659Z" fill="#9B6160"/>
<path d="M337.322 193.324C337.601 193.387 337.787 193.643 337.77 193.919L337.757 194.012L336.989 197.404C336.919 197.714 336.611 197.908 336.301 197.838C336.022 197.775 335.836 197.519 335.853 197.243L335.866 197.15L336.634 193.758C336.697 193.479 336.953 193.294 337.229 193.311L337.322 193.324Z" fill="#9B6160"/>
<path d="M357.036 194.595C357.315 194.442 357.667 194.544 357.819 194.822C357.971 195.101 357.872 195.451 357.593 195.604C357.152 195.845 356.711 196.074 356.26 196.292C350.086 199.282 343.573 199.879 337.788 199.117C337.441 199.071 337.122 199.023 336.835 198.974L336.329 198.881C336.231 198.862 336.157 198.846 336.108 198.834C335.798 198.763 335.605 198.454 335.677 198.144C335.749 197.834 336.058 197.641 336.367 197.713L336.655 197.772L336.767 197.793C337.103 197.855 337.495 197.918 337.939 197.976C343.519 198.711 349.816 198.133 355.759 195.256C356.189 195.047 356.616 194.827 357.036 194.595Z" fill="#9B6160"/>
<path d="M346.651 175.736C346.765 175.439 347.097 175.29 347.394 175.403L347.643 175.504L348.055 175.682C348.127 175.714 348.202 175.748 348.279 175.784C348.935 176.088 349.591 176.435 350.207 176.822C352.358 178.174 353.543 179.674 353.102 181.35C353.021 181.658 352.707 181.841 352.399 181.761C352.092 181.68 351.908 181.365 351.989 181.058C352.256 180.043 351.356 178.904 349.595 177.797C349.024 177.439 348.41 177.113 347.795 176.828L347.501 176.695C347.274 176.595 347.097 176.522 346.984 176.479C346.687 176.366 346.538 176.033 346.651 175.736Z" fill="#9B6160"/>
<path d="M273.958 273.935C274.222 273.807 274.533 273.894 274.696 274.126L274.744 274.208L281.201 287.547C281.343 287.84 281.221 288.192 280.928 288.333C280.665 288.461 280.353 288.374 280.19 288.143L280.142 288.06L273.685 274.721C273.543 274.428 273.666 274.077 273.958 273.935Z" fill="#597EF7"/>
<path d="M403.715 235.015C403.969 234.81 404.34 234.847 404.544 235.099C404.749 235.351 404.714 235.722 404.46 235.927L404.361 236.015C404.276 236.092 404.156 236.205 404.005 236.355C403.624 236.741 403.193 237.223 402.731 237.808C401.394 239.493 400.054 241.659 398.798 244.354C394.328 253.958 392.109 267.494 393.379 285.609C393.4 285.933 393.157 286.214 392.832 286.237C392.508 286.26 392.225 286.015 392.204 285.691C390.92 267.385 393.174 253.65 397.732 243.857C399.023 241.078 400.413 238.833 401.807 237.077C402.301 236.457 402.756 235.942 403.172 235.526L403.401 235.3C403.539 235.168 403.645 235.073 403.715 235.015Z" fill="#597EF7"/>
<path d="M302.489 239.421C302.813 239.45 303.053 239.735 303.025 240.059C302.566 245.387 302.887 253.164 303.83 262.735C304.253 267.03 304.792 271.571 305.417 276.252C305.986 280.504 306.596 284.637 307.205 288.487L307.637 291.165L308.017 293.429C308.073 293.749 307.859 294.054 307.539 294.109C307.218 294.165 306.913 293.951 306.858 293.631L306.476 291.356C306.367 290.698 306.253 289.992 306.133 289.242L306.042 288.671C305.432 284.812 304.821 280.67 304.251 276.408C303.623 271.715 303.083 267.16 302.659 262.851L302.51 261.304C301.676 252.372 301.411 245.082 301.852 239.958C301.877 239.666 302.111 239.443 302.393 239.421H302.489Z" fill="#597EF7"/>
<path d="M344.618 347.39C344.943 347.395 345.202 347.663 345.197 347.988L345.15 351.974C345.05 362.772 345.092 374.668 345.377 385.872L345.46 388.888C345.883 402.957 346.677 413.487 347.911 419.104C347.98 419.421 347.78 419.735 347.462 419.802C347.145 419.873 346.831 419.672 346.761 419.354L346.63 418.737C345.365 412.475 344.586 401.052 344.2 385.904C343.934 375.43 343.88 364.36 343.955 354.14L344.001 349.393L344.02 347.969C344.025 347.644 344.293 347.385 344.618 347.39Z" fill="#253368"/>
<path d="M355.544 347.675C355.872 347.677 356.133 347.943 356.129 348.268L356.126 349.225C356.094 356.313 356.164 364.811 356.404 373.055L356.517 376.555C356.739 382.732 357.057 387.936 357.48 391.887L357.583 392.815V392.931C357.233 397.221 354.824 399.838 351.091 401.062C349.186 401.687 347.209 401.881 345.469 401.817L345.071 401.8C344.903 401.789 344.781 401.779 344.714 401.772C344.39 401.736 344.156 401.447 344.19 401.122C344.225 400.801 344.514 400.565 344.837 400.6L345.14 400.625C346.838 400.724 348.836 400.565 350.724 399.944C353.938 398.889 355.977 396.744 356.38 393.164L356.404 392.885L356.358 392.49C355.893 388.292 355.551 382.633 355.314 375.853L355.265 374.329C355.018 366.508 354.933 358.39 354.94 351.391L354.951 348.259C354.954 347.934 355.219 347.672 355.544 347.675Z" fill="#253368"/>
<path d="M318.869 306.601L316.281 286.254C316.052 284.407 315.842 282.666 315.645 280.985L315.452 279.323C315.083 276.104 314.767 273.12 314.502 270.317C314.265 267.813 314.047 265.184 313.848 262.444C313.32 255.184 312.94 247.447 312.685 239.673L312.624 237.729C312.561 235.665 312.511 233.705 312.471 231.871L312.418 229.164L312.379 226.494C312.377 226.169 312.638 225.903 312.963 225.9C313.288 225.897 313.554 226.158 313.557 226.484L313.602 229.564L313.648 231.846C313.682 233.414 313.724 235.077 313.774 236.817L313.8 237.694C314.054 246.103 314.451 254.512 315.022 262.358L315.197 264.673C315.316 266.197 315.442 267.683 315.573 269.129L315.674 270.206C315.909 272.69 316.184 275.318 316.501 278.127L316.796 280.696C317.004 282.472 317.227 284.315 317.47 286.277L319.905 305.383C320.019 306.302 320.116 307.088 320.186 307.674L320.422 309.745C320.955 314.595 321.054 316.978 320.643 317.731L320.61 317.786C319.965 318.771 319.103 321.772 318.821 324.598C318.443 328.387 319.017 331.648 320.728 333.807C320.929 334.062 320.886 334.432 320.632 334.634C320.377 334.836 320.006 334.793 319.805 334.538C317.869 332.094 317.245 328.546 317.65 324.481C317.948 321.483 318.861 318.309 319.624 317.142C319.865 316.773 319.704 313.82 319.12 308.697L318.869 306.601Z" fill="#597EF7"/>
<path d="M328.914 217.404C329.238 217.421 329.488 217.698 329.47 218.023L329.351 220.531L329.249 222.917C329.175 224.742 329.101 226.725 329.031 228.847C328.568 242.91 328.428 257.478 328.807 271.085L328.859 272.866C329.462 292.03 331.077 306.789 333.913 315.434C333.942 315.522 333.949 315.617 333.935 315.709L333.692 317.204L333.401 318.956C332.04 327.274 332.038 330.453 333.989 333.133C334.18 333.395 334.123 333.763 333.86 333.955C333.597 334.146 333.229 334.088 333.037 333.825C330.899 330.888 330.819 327.697 332.089 319.693L332.75 315.662L332.662 315.391C329.82 306.423 328.23 291.421 327.656 272.016L327.63 271.117C327.273 258.286 327.376 244.607 327.776 231.299L327.855 228.808C327.933 226.417 328.017 224.202 328.101 222.191L328.295 217.961C328.312 217.636 328.589 217.387 328.914 217.404Z" fill="#597EF7"/>
<path d="M343.156 215.548C343.481 215.564 343.731 215.84 343.715 216.165L343.589 219.063L343.461 222.472C343.41 223.918 343.36 225.459 343.312 227.09C342.699 247.861 342.707 270.043 343.752 290.838C344.133 298.438 344.648 305.615 345.304 312.301L345.447 313.726L345.448 313.834L345.353 314.946C345.178 316.821 344.433 324.746 344.368 326.389C344.253 329.255 344.515 331.05 345.346 332.817C345.56 333.271 345.815 333.731 346.119 334.207C346.294 334.481 346.214 334.845 345.94 335.02C345.665 335.195 345.301 335.114 345.127 334.84C344.797 334.322 344.517 333.819 344.281 333.318C343.403 331.45 343.099 329.569 343.177 326.769L343.191 326.342C343.227 325.447 343.457 322.764 343.69 320.171L344.215 314.463L344.271 313.79L344.133 312.416C343.521 306.19 343.033 299.541 342.66 292.523L342.576 290.897C341.575 270.972 341.524 249.784 342.059 229.776L342.184 225.452C342.242 223.617 342.301 221.907 342.361 220.332L342.476 217.507L342.539 216.107C342.555 215.783 342.832 215.532 343.156 215.548Z" fill="#597EF7"/>
<path d="M358.285 215.196C358.577 215.215 358.807 215.442 358.835 215.724L358.831 215.884L358.585 220.221L358.362 224.393C358.182 227.902 357.999 231.62 357.826 235.488L357.71 238.089C357.304 247.431 356.99 256.591 356.796 265.242L356.725 268.723C356.341 289.026 356.718 304.181 358.052 312.106L358.105 312.419C358.196 312.922 358.295 313.459 358.419 314.088L359.234 318.173C359.459 319.325 359.632 320.262 359.791 321.19L359.943 322.133C360.881 328.158 360.666 332.185 358.771 334.759C358.577 335.021 358.211 335.076 357.949 334.884C357.685 334.691 357.632 334.322 357.822 334.061C359.516 331.765 359.678 327.836 358.708 321.862L358.51 320.693C358.366 319.875 358.2 319.009 357.992 317.959L357.262 314.312C357.138 313.677 357.036 313.133 356.948 312.622L356.838 311.972C355.494 303.647 355.148 287.985 355.579 267.064C355.755 258.478 356.055 249.36 356.45 240.039L356.535 238.038C356.743 233.228 356.965 228.624 357.187 224.331L357.505 218.45L357.66 215.749C357.681 215.424 357.96 215.177 358.285 215.196Z" fill="#597EF7"/>
<path d="M374.795 217.435C375.116 217.492 375.327 217.798 375.271 218.118L375.14 218.906C375.066 219.377 374.985 219.914 374.897 220.515L374.795 221.266C374.46 223.693 374.124 226.536 373.81 229.786L373.736 230.543C371.747 251.681 371.471 277.979 373.994 308.844L374.241 311.75C374.784 318.051 374.855 324.194 374.629 329.641L374.586 330.595C374.569 331.024 374.548 331.424 374.523 331.794L374.431 333.169C374.403 333.492 374.117 333.733 373.793 333.706C373.472 333.678 373.232 333.394 373.257 333.07L373.306 332.413L373.369 331.348C373.384 331.091 373.398 330.821 373.412 330.539C373.683 324.908 373.641 318.465 373.066 311.852C370.321 280.145 370.501 253.13 372.473 231.431L372.565 230.433C372.879 227.105 373.214 224.182 373.549 221.677L373.786 219.991L373.976 218.722C374.04 218.32 374.086 218.049 374.11 217.911C374.163 217.623 374.417 217.422 374.699 217.426L374.795 217.435Z" fill="#597EF7"/>
<path d="M390.218 226.364L390.313 226.378C390.631 226.449 390.832 226.764 390.758 227.082L390.539 228.085L390.289 229.266C390.119 230.063 389.943 230.937 389.752 231.882C388.997 235.66 388.242 239.787 387.537 244.126C386.338 251.505 385.41 258.723 384.863 265.491C384.471 270.305 384.284 274.784 384.32 278.863L384.655 316.204L384.831 316.673L384.955 317.016C385.212 317.736 385.466 318.535 385.702 319.392C386.32 321.62 386.715 323.839 386.782 325.923C386.884 329.035 386.239 331.602 384.658 333.413C384.443 333.658 384.073 333.683 383.826 333.469C383.582 333.255 383.558 332.884 383.769 332.639C385.124 331.089 385.699 328.803 385.607 325.96C385.544 323.982 385.163 321.851 384.57 319.707C384.383 319.043 384.189 318.416 383.995 317.835L383.847 317.408C383.741 317.112 383.653 316.876 383.589 316.709L383.522 316.543L383.476 316.325L383.145 278.873C383.106 274.756 383.297 270.243 383.688 265.396C384.242 258.593 385.17 251.345 386.376 243.937C387.018 239.979 387.703 236.197 388.391 232.693L388.599 231.65C388.789 230.703 388.969 229.825 389.135 229.024L389.491 227.363L389.611 226.822C389.675 226.537 389.936 226.347 390.218 226.364Z" fill="#597EF7"/>
<path d="M406.22 243.561C406.516 243.423 406.866 243.55 407.003 243.845L407.236 244.346C407.423 244.755 407.638 245.237 407.882 245.786L408.358 246.864C408.929 248.162 409.543 249.596 410.192 251.152C412.584 256.87 414.972 263.072 417.202 269.542C420.416 278.865 423.023 287.95 424.808 296.502C426.78 305.937 427.68 314.422 427.341 321.727C427.175 325.247 425.782 329.192 423.323 333.494C420.818 337.87 417.276 342.507 412.965 347.266C409.836 350.718 406.485 354.034 403.137 357.096L402.273 357.879C401.708 358.387 401.165 358.867 400.65 359.318L399.503 360.31L398.66 361.015C398.41 361.22 398.039 361.184 397.835 360.934C397.626 360.68 397.665 360.31 397.916 360.105L398.561 359.565C398.734 359.417 398.925 359.255 399.129 359.078L399.877 358.433C400.643 357.763 401.468 357.025 402.343 356.228C405.666 353.187 408.989 349.898 412.094 346.475C416.352 341.774 419.844 337.202 422.3 332.909C424.674 328.756 426.011 324.979 426.166 321.672C426.501 314.479 425.609 306.088 423.658 296.742C421.883 288.244 419.29 279.205 416.091 269.926C413.868 263.482 411.487 257.302 409.106 251.606L408.563 250.308C408.023 249.041 407.515 247.866 407.042 246.792L406.28 245.087L405.938 244.343C405.8 244.049 405.927 243.699 406.22 243.561Z" fill="#597EF7"/>
<path d="M398.843 254.567C399.143 254.438 399.489 254.575 399.62 254.874L400.396 256.713L401.038 258.257C401.479 259.33 401.951 260.488 402.445 261.723C404.566 267.015 406.682 272.622 408.661 278.299C410.221 282.775 411.628 287.114 412.849 291.253L413.24 292.601C417.283 306.654 418.786 317.238 416.955 323.12C416.345 325.072 415.428 327.144 414.225 329.32C412.274 332.854 409.624 336.592 406.446 340.434C403.976 343.421 401.331 346.3 398.685 348.966L397.909 349.743C397.401 350.245 396.917 350.715 396.462 351.152L395.743 351.834L395.15 352.384C394.91 352.602 394.536 352.584 394.317 352.344C394.102 352.103 394.12 351.73 394.36 351.512L394.938 350.976L395.316 350.619C396.078 349.893 396.931 349.061 397.849 348.136C400.47 345.494 403.094 342.641 405.539 339.684C408.672 335.894 411.282 332.213 413.194 328.751C414.359 326.64 415.248 324.64 415.83 322.77C417.625 317.005 415.988 306.082 411.716 291.585C410.506 287.466 409.102 283.145 407.55 278.686C405.578 273.028 403.465 267.437 401.352 262.161L400.632 260.373C400.318 259.604 400.018 258.872 399.732 258.178L398.537 255.341C398.41 255.043 398.547 254.696 398.843 254.567Z" fill="#597EF7"/>
<path d="M394.402 277.094C394.691 276.946 395.044 277.061 395.192 277.35L395.64 278.242L396.145 279.273C396.483 279.965 396.843 280.718 397.224 281.526C398.745 284.755 400.265 288.187 401.683 291.676C402.9 294.66 403.983 297.553 404.908 300.307C407.818 308.998 408.944 315.701 407.705 319.742C407.208 321.368 406.523 323.093 405.666 324.906C404.361 327.679 402.678 330.606 400.713 333.619C398.988 336.264 397.143 338.828 395.295 341.214L394.663 342.022C394.458 342.282 394.261 342.532 394.067 342.772L393.241 343.788L392.825 344.283C392.617 344.531 392.243 344.56 391.996 344.349C391.749 344.138 391.721 343.766 391.933 343.519L392.483 342.858L393.15 342.035C393.531 341.559 393.936 341.045 394.363 340.493C396.194 338.131 398.022 335.592 399.729 332.976C401.666 330.005 403.32 327.123 404.604 324.404C405.437 322.639 406.1 320.965 406.58 319.398C407.719 315.671 406.626 309.144 403.789 300.681C402.876 297.952 401.8 295.082 400.593 292.12C399.182 288.652 397.672 285.239 396.159 282.028L395.499 280.642C395.358 280.348 395.22 280.063 395.086 279.788L394.145 277.886C393.996 277.597 394.113 277.242 394.402 277.094Z" fill="#597EF7"/>
<path d="M251.052 241.005C251.293 240.787 251.665 240.806 251.884 241.047C252.867 242.133 254.147 244.84 256.13 249.81L256.822 251.571C258.053 254.75 261.486 263.714 262.773 266.967L263.423 268.593C266.057 275.141 268.321 280.192 270.489 284.178L270.895 284.914C274.262 290.918 277.155 293.745 279.4 293.063C281.015 292.572 282.79 291.643 284.694 290.319C287.228 288.557 289.927 286.146 292.706 283.249C294.875 280.989 296.968 278.565 298.907 276.141L299.562 275.314C299.773 275.045 299.975 274.784 300.17 274.531L300.949 273.505C301.151 273.234 301.297 273.035 301.383 272.916C301.572 272.652 301.94 272.592 302.204 272.782C302.468 272.972 302.528 273.339 302.338 273.603L301.934 274.153L301.668 274.507C301.129 275.222 300.512 276.019 299.826 276.876C297.867 279.326 295.752 281.776 293.556 284.064C290.727 287.013 287.973 289.474 285.366 291.286C283.368 292.674 281.488 293.659 279.742 294.189C276.661 295.125 273.391 291.876 269.662 285.119L269.455 284.74C267.183 280.563 264.818 275.256 262.047 268.325L260.974 265.603C259.181 260.998 255.954 252.568 255.372 251.092L254.715 249.446C252.978 245.146 251.811 242.721 251.011 241.837C250.793 241.596 250.811 241.223 251.052 241.005Z" fill="#597EF7"/>
<path d="M243.286 244.396C243.604 244.326 243.918 244.527 243.987 244.845L244.138 245.509L244.485 246.98L244.585 247.397C245.08 249.433 245.664 251.701 246.333 254.144C248.247 261.123 250.466 268.102 252.964 274.611L253.411 275.764C260.058 292.707 267.42 303.164 275.124 304.028C282.49 304.855 289.25 301.127 295.228 294.364C297.133 292.208 298.816 289.896 300.258 287.584C300.678 286.91 301.052 286.277 301.379 285.695L301.57 285.352C301.79 284.951 301.938 284.667 302.011 284.518C302.155 284.227 302.508 284.107 302.799 284.251C303.091 284.395 303.21 284.748 303.067 285.039L302.855 285.449C302.784 285.584 302.699 285.741 302.601 285.919C302.222 286.61 301.773 287.38 301.256 288.207C299.782 290.571 298.062 292.935 296.11 295.143C289.903 302.164 282.813 306.076 274.993 305.198C266.487 304.244 258.789 293.075 251.865 275.033C249.351 268.483 247.12 261.469 245.198 254.455L244.762 252.845C244.269 250.999 243.828 249.266 243.442 247.675L243.07 246.113L242.838 245.097C242.768 244.779 242.969 244.465 243.286 244.396Z" fill="#597EF7"/>
<path d="M237.016 248.479C237.337 248.427 237.639 248.645 237.691 248.966L237.813 249.672C237.916 250.252 238.042 250.925 238.192 251.684L238.493 253.167C238.862 254.938 239.293 256.852 239.789 258.878C241.613 266.32 243.933 273.762 246.794 280.702L247.278 281.861C254.832 299.67 264.647 310.772 276.92 312.077C277.243 312.112 277.478 312.402 277.443 312.725C277.409 313.048 277.119 313.283 276.796 313.248C263.704 311.856 253.472 299.998 245.705 281.151C242.82 274.15 240.483 266.654 238.646 259.158C238.075 256.826 237.589 254.643 237.185 252.65L237.037 251.912C236.962 251.529 236.892 251.168 236.828 250.828L236.576 249.432C236.555 249.31 236.539 249.217 236.529 249.154C236.477 248.833 236.695 248.53 237.016 248.479Z" fill="#597EF7"/>
<path d="M299.667 260.061C299.968 260.184 300.111 260.528 299.988 260.829L299.897 261.047C298.27 264.921 295.589 269.03 292.147 273.226C290.091 275.734 287.889 278.12 285.686 280.306C285.172 280.816 284.683 281.291 284.223 281.728L283.392 282.505L282.742 283.095C282.498 283.309 282.126 283.285 281.911 283.041C281.697 282.797 281.721 282.425 281.965 282.211L282.619 281.618L282.756 281.491C283.389 280.903 284.096 280.226 284.857 279.47C287.032 277.311 289.208 274.954 291.237 272.48C294.459 268.551 296.995 264.71 298.59 261.105L298.899 260.382C299.022 260.081 299.366 259.937 299.667 260.061Z" fill="#597EF7"/>
<path d="M301.614 238.988C301.766 238.7 302.122 238.59 302.41 238.741C302.697 238.893 302.808 239.249 302.656 239.536C300.93 242.81 298.777 246.535 296.264 250.627C295.318 252.169 294.325 253.754 293.292 255.376C290.617 259.579 287.774 263.868 284.911 268.067L283.683 269.86C283.11 270.693 282.557 271.493 282.029 272.253L279.314 276.113C279.125 276.377 278.757 276.438 278.493 276.249C278.229 276.059 278.168 275.692 278.357 275.427L279.554 273.737L281.062 271.581C281.458 271.012 281.867 270.421 282.288 269.81L282.713 269.193C285.981 264.439 289.25 259.534 292.299 254.744C293.329 253.127 294.318 251.547 295.261 250.011C297.761 245.939 299.902 242.236 301.614 238.988Z" fill="#597EF7"/>
<path d="M251.065 238.093C251.324 237.895 251.693 237.945 251.89 238.203C252.088 238.461 252.039 238.831 251.78 239.028C251.261 239.425 250.729 239.806 250.185 240.172C247.342 242.086 244.298 243.513 241.254 244.526C240.341 244.831 239.482 245.078 238.695 245.275L238.308 245.369C238.073 245.425 237.857 245.472 237.663 245.513L237.475 245.551C237.328 245.58 237.225 245.598 237.169 245.607C236.848 245.66 236.545 245.442 236.493 245.121C236.441 244.8 236.659 244.498 236.979 244.445L237.387 244.368C237.564 244.331 237.782 244.284 238.038 244.223C238.894 244.021 239.852 243.753 240.883 243.41C243.831 242.428 246.779 241.045 249.528 239.195C250.052 238.842 250.565 238.475 251.065 238.093Z" fill="#597EF7"/>
<path d="M371.471 213.298C371.785 213.212 372.11 213.396 372.198 213.709C372.283 214.023 372.099 214.346 371.785 214.433C368.364 215.375 364.419 215.989 360.056 216.314C353.572 216.797 346.637 216.625 339.947 216.044L338.796 215.939C338.049 215.868 337.346 215.795 336.69 215.722L335.66 215.602L334.824 215.495C334.502 215.45 334.277 215.153 334.322 214.831C334.367 214.509 334.664 214.284 334.986 214.329L335.803 214.434L336.342 214.498C337.438 214.625 338.681 214.752 340.048 214.871C346.681 215.447 353.554 215.618 359.967 215.14C364.261 214.82 368.131 214.217 371.471 213.298Z" fill="#597EF7"/>
<path d="M381.903 348.003C382.228 347.999 382.496 348.259 382.499 348.584L382.51 348.998C382.517 349.135 382.524 349.297 382.535 349.482C382.573 350.205 382.637 351.012 382.729 351.881C382.993 354.362 383.448 356.842 384.133 359.153C385.695 364.43 388.204 367.986 391.813 369.09C392.123 369.186 392.299 369.514 392.204 369.828C392.109 370.138 391.777 370.311 391.467 370.216C387.396 368.967 384.665 365.104 383.004 359.484C382.298 357.103 381.833 354.552 381.557 352.007C381.483 351.294 381.427 350.622 381.384 350.001L381.36 349.545C381.335 349.097 381.325 348.775 381.321 348.599C381.317 348.274 381.579 348.007 381.903 348.003Z" fill="#253368"/>
<path d="M317.522 349.166C317.815 349.165 318.058 349.377 318.105 349.657L318.113 349.752L318.108 350.339C318.095 351.061 318.056 352.033 317.974 353.187C317.802 355.632 317.488 358.077 316.998 360.363C315.724 366.296 313.495 370.219 309.964 371.122C309.649 371.203 309.329 371.013 309.248 370.699C309.168 370.385 309.358 370.064 309.673 369.983C312.625 369.228 314.659 365.647 315.847 360.116C316.324 357.89 316.631 355.498 316.8 353.102L316.843 352.447C316.907 351.393 316.933 350.531 316.936 349.933L316.936 349.758L316.943 349.662C316.988 349.382 317.23 349.167 317.522 349.166Z" fill="#253368"/>
<path d="M311.748 347.489L389.805 347.73C390.13 347.731 390.395 347.995 390.395 348.32C390.391 348.613 390.179 348.855 389.897 348.9L389.802 348.907L311.745 348.666C311.42 348.665 311.157 348.401 311.158 348.076C311.159 347.783 311.373 347.541 311.653 347.496L311.748 347.489Z" fill="#253368"/>
<path d="M388.631 335.27C388.955 335.268 389.22 335.53 389.223 335.855C389.223 336.148 389.012 336.392 388.733 336.439L388.638 336.447L312.143 336.862C311.817 336.863 311.552 336.601 311.551 336.276C311.549 335.983 311.761 335.74 312.041 335.692L312.136 335.684L388.631 335.27Z" fill="#253368"/>
<path d="M297.052 232.882C301.747 232.882 305.554 229.075 305.554 224.379C305.554 219.684 301.747 215.877 297.052 215.877C292.356 215.877 288.549 219.684 288.549 224.379C288.549 229.075 292.356 232.882 297.052 232.882Z" fill="#597EF7"/>
<path fill-rule="evenodd" clip-rule="evenodd" d="M88.0227 144.125C65.8756 144.162 48.3457 161.166 47.2281 182.817H128.019C133.87 182.822 139.693 181.991 145.305 180.351C145.612 178.324 145.765 176.277 145.765 174.226V144.125H88.0227Z" fill="#42CBEA"/>
<path fill-rule="evenodd" clip-rule="evenodd" d="M106.717 104.045C90.8957 104.075 75.7337 110.346 64.5693 121.475C53.4049 132.607 47.1488 147.688 47.1788 163.399V182.815C48.3313 161.164 66.3085 144.16 88.1391 144.12H145.053V174.224C145.053 176.272 144.901 178.321 144.599 180.349C169.859 172.782 187.133 149.662 187.105 123.461V104.045H106.717Z" fill="#329EE0"/>
<path fill-rule="evenodd" clip-rule="evenodd" d="M127.526 182.82H47.1964C47.159 183.527 47.1452 184.24 47.1452 184.957V215.055H104.059C124.343 215.023 141.557 200.275 144.563 180.354C139.035 181.996 133.296 182.824 127.526 182.82Z" fill="#4CD885"/>
<path fill-rule="evenodd" clip-rule="evenodd" d="M196.269 164.248L183.941 202.975H191.395L203.723 164.248H196.269Z" fill="#597EF7"/>
<path fill-rule="evenodd" clip-rule="evenodd" d="M178.69 168.651H170.778H165.791C165.402 168.651 165.086 168.967 165.086 169.356V174.343V192.881V197.868C165.086 198.257 165.402 198.573 165.791 198.573H170.778H178.69C179.08 198.573 179.395 198.257 179.395 197.868V193.585C179.395 193.196 179.08 192.881 178.69 192.881H170.778V174.343H178.69C179.08 174.343 179.395 174.028 179.395 173.639V169.356C179.395 168.967 179.08 168.651 178.69 168.651Z" fill="#CCD7EE"/>
<path fill-rule="evenodd" clip-rule="evenodd" d="M221.874 168.651H216.886H208.974C208.585 168.651 208.269 168.967 208.269 169.356V173.639C208.269 174.028 208.585 174.343 208.974 174.343H216.886V192.881H208.974C208.585 192.881 208.269 193.196 208.269 193.585V197.868C208.269 198.257 208.585 198.573 208.974 198.573H216.886H221.874C222.263 198.573 222.578 198.257 222.578 197.868V193.585V173.639V169.356C222.578 168.967 222.263 168.651 221.874 168.651Z" fill="#CCD7EE"/>
<path d="M202.825 215.922H197.578C194.46 215.922 191.933 218.449 191.933 221.566V226.814C191.933 229.931 194.46 232.459 197.578 232.459H202.825C205.942 232.459 208.47 229.931 208.47 226.814V221.566C208.47 218.449 205.942 215.922 202.825 215.922Z" fill="#597EF7"/>
<path d="M166.312 261.959H56.9958C53.8783 261.959 51.3514 264.487 51.3514 267.604L51.351 376.922C51.351 380.037 53.8783 382.566 56.9955 382.566H166.312C169.43 382.566 171.957 380.037 171.957 376.922V267.604C171.957 264.487 169.43 261.959 166.312 261.959Z" fill="#597EF7"/>
<path d="M104.533 232.018H60.9205C57.803 232.018 55.2761 234.545 55.2761 237.662V281.274C55.2761 284.391 57.803 286.918 60.9205 286.918H104.533C107.65 286.918 110.177 284.391 110.177 281.274V237.662C110.177 234.545 107.65 232.018 104.533 232.018Z" fill="#597EF7"/>
<path fill-rule="evenodd" clip-rule="evenodd" d="M231.327 290.926L200.06 384.729C199.242 387.181 196.591 388.507 194.137 387.689C193.448 387.459 192.821 387.075 192.307 386.56L129.772 324.024C127.944 322.195 127.944 319.231 129.772 317.402C130.286 316.888 130.913 316.501 131.602 316.271L225.405 285.003C227.858 284.186 230.51 285.512 231.328 287.965C231.648 288.926 231.648 289.965 231.327 290.926Z" fill="#FF7946"/>
</g>
<defs>
<clipPath id="clip0">
<rect width="508" height="508" fill="white"/>
</clipPath>
</defs>
</svg>
