<svg width="518" height="440" viewBox="0 0 518 440" fill="none" xmlns="http://www.w3.org/2000/svg">
<path fill-rule="evenodd" clip-rule="evenodd" d="M55.5641 53.8314C56.0705 54.3533 56.0879 55.2182 55.6029 55.7631C54.8322 56.629 54.0086 57.4865 53.1404 58.3372C52.622 58.8453 51.819 58.8048 51.3469 58.247C50.8748 57.6891 50.9124 56.825 51.4308 56.3169C52.2624 55.502 53.0438 54.6879 53.7691 53.8731C54.2541 53.3282 55.0577 53.3095 55.5641 53.8314ZM48.1175 61.1104C48.5445 61.7089 48.4398 62.5666 47.8836 63.0261C46.1454 64.4621 44.3096 65.8944 42.4153 67.3296C41.842 67.7639 41.05 67.6159 40.6463 66.999C40.2426 66.382 40.3801 65.5297 40.9535 65.0953C42.8303 63.6734 44.6359 62.2643 46.3373 60.8587C46.8935 60.3992 47.6905 60.5119 48.1175 61.1104ZM37.2055 69.5491C37.6007 70.1724 37.4515 71.0224 36.8723 71.4477C36.481 71.735 36.0888 72.0226 35.6959 72.3108C34.2465 73.374 32.7882 74.4436 31.3308 75.526C30.7537 75.9546 29.963 75.7986 29.5648 75.1776C29.1665 74.5566 29.3114 73.7058 29.8885 73.2772C31.3525 72.1899 32.8186 71.1145 34.2688 70.0507C34.6609 69.7631 35.0518 69.4764 35.4412 69.1905C36.0204 68.7653 36.8103 68.9258 37.2055 69.5491ZM26.1456 77.7685C26.5575 78.3791 26.4315 79.2335 25.8641 79.6768C24.0489 81.095 22.269 82.5358 20.5519 84.0063C20.0032 84.4762 19.2045 84.3784 18.7679 83.788C18.3313 83.1976 18.4221 82.3381 18.9707 81.8683C20.7238 80.367 22.5345 78.9014 24.3723 77.4656C24.9397 77.0223 25.7336 77.1579 26.1456 77.7685ZM15.5799 86.6957C16.0537 87.252 16.0187 88.1162 15.5018 88.626C13.8406 90.2644 12.2872 91.94 10.8734 93.6603C10.4089 94.2256 9.60657 94.2786 9.0813 93.7787C8.55604 93.2789 8.50679 92.4155 8.97129 91.8502C10.4537 90.0464 12.0715 88.3028 13.7861 86.6117C14.303 86.1019 15.1061 86.1395 15.5799 86.6957ZM6.5333 97.3515C7.12377 97.7584 7.29587 98.6034 6.91771 99.2388C5.72888 101.236 4.75199 103.291 4.02511 105.414C3.78266 106.122 3.05276 106.484 2.39482 106.223C1.73689 105.962 1.40007 105.177 1.64252 104.469C2.44088 102.138 3.50504 99.9064 4.77944 97.7652C5.1576 97.1298 5.94284 96.9446 6.5333 97.3515ZM1.46889 110.606C2.16748 110.671 2.68493 111.333 2.62465 112.085C2.44919 114.273 2.53932 116.55 2.93837 118.928C3.06297 119.671 2.6046 120.381 1.91457 120.515C1.22455 120.649 0.564165 120.156 0.439567 119.414C0.00145174 116.803 -0.100302 114.283 0.0948386 111.85C0.155115 111.098 0.770298 110.541 1.46889 110.606ZM37.3668 117.764C37.4902 118.507 37.0306 119.217 36.3404 119.35C34.8971 119.627 33.6552 120.7 32.9499 123.303C32.7535 124.027 32.0487 124.443 31.3755 124.232C30.7024 124.02 30.3159 123.262 30.5122 122.537C31.418 119.196 33.2784 117.163 35.8936 116.66C36.5838 116.527 37.2434 117.022 37.3668 117.764ZM41.4352 118.959C41.7585 118.289 42.5249 118.028 43.1472 118.376C44.1338 118.928 45.1405 119.593 46.1558 120.357C47.2875 121.209 48.0912 122.293 48.5634 123.546C48.8268 124.246 48.5136 125.042 47.8638 125.326C47.2139 125.609 46.4736 125.272 46.2102 124.573C45.9317 123.833 45.4516 123.162 44.7004 122.596C43.7624 121.89 42.8507 121.29 41.9766 120.801C41.3543 120.453 41.112 119.628 41.4352 118.959ZM3.12595 124.827C3.7739 124.538 4.51642 124.87 4.78441 125.567C5.18391 126.607 5.64081 127.665 6.1583 128.744C6.64455 129.757 7.14385 130.711 7.65444 131.606C8.02112 132.249 7.83388 133.09 7.23621 133.485C6.63855 133.88 5.85679 133.678 5.4901 133.035C4.94541 132.08 4.41561 131.068 3.90204 129.997C3.35335 128.854 2.86606 127.725 2.43797 126.612C2.16998 125.914 2.478 125.115 3.12595 124.827ZM31.0932 128.749C31.7935 128.713 32.3889 129.294 32.4229 130.048C32.5136 132.055 32.7686 134.366 33.2144 137.005C33.3398 137.747 32.8822 138.458 32.1923 138.593C31.5025 138.728 30.8415 138.236 30.7161 137.494C30.2548 134.762 29.9838 132.33 29.8867 130.18C29.8527 129.427 30.3928 128.786 31.0932 128.749ZM47.402 129.354C48.0453 129.655 48.3406 130.459 48.0615 131.151C47.2439 133.18 45.9635 135.221 44.356 137.118C43.8835 137.675 43.0805 137.715 42.5624 137.207C42.0443 136.699 42.0072 135.834 42.4797 135.277C43.9373 133.557 45.0467 131.764 45.732 130.064C46.0111 129.372 46.7587 129.054 47.402 129.354ZM9.45079 136.71C9.96826 136.201 10.7713 136.24 11.2445 136.797C12.709 138.52 14.2265 139.882 15.767 140.935C16.359 141.339 16.5342 142.183 16.1585 142.82C15.7827 143.457 14.9981 143.646 14.4061 143.241C12.6637 142.051 10.9759 140.53 9.37059 138.64C8.89742 138.084 8.93333 137.219 9.45079 136.71ZM39.7289 139.829C40.1231 140.453 39.9727 141.302 39.3929 141.727C37.9631 142.773 36.4159 143.705 34.7832 144.47C35.2725 146.463 35.8427 148.586 36.4993 150.844C36.7086 151.564 36.3359 152.331 35.6667 152.556C34.9975 152.781 34.2853 152.38 34.0759 151.66C33.3524 149.171 32.7299 146.837 32.2024 144.651C32.093 144.525 32.0041 144.375 31.9438 144.203C31.6954 143.498 32.0255 142.709 32.6812 142.442C34.56 141.676 36.3415 140.655 37.9651 139.467C38.5449 139.043 39.3346 139.205 39.7289 139.829ZM19.582 144.414C19.7491 143.681 20.4365 143.233 21.1175 143.413C23.0575 143.925 25.0112 144.057 26.9321 143.88C27.6307 143.816 28.2455 144.373 28.3052 145.125C28.3648 145.877 27.8469 146.539 27.1482 146.603C24.9731 146.803 22.7408 146.655 20.5126 146.067C19.8316 145.887 19.415 145.147 19.582 144.414ZM36.9949 156.833C37.6562 156.582 38.3813 156.956 38.6144 157.667C39.3179 159.814 40.0874 162.062 40.9265 164.413C41.1778 165.118 40.8509 165.908 40.1963 166.178C39.5417 166.449 38.8073 166.097 38.556 165.393C37.7091 163.019 36.9314 160.748 36.2198 158.576C35.9866 157.864 36.3336 157.084 36.9949 156.833ZM41.7327 170.339C42.3816 170.053 43.123 170.387 43.3888 171.086C44.2021 173.223 45.0665 175.435 45.9839 177.725C46.2615 178.418 45.9646 179.222 45.3207 179.52C44.6768 179.819 43.9298 179.5 43.6522 178.807C42.7289 176.503 41.8585 174.275 41.039 172.121C40.7732 171.423 41.0838 170.625 41.7327 170.339ZM47.007 183.637C47.6465 183.327 48.3981 183.634 48.6857 184.322C49.5738 186.447 50.5036 188.631 51.4763 190.877C51.7725 191.561 51.4974 192.374 50.8619 192.693C50.2263 193.011 49.471 192.715 49.1748 192.032C48.1974 189.775 47.2629 187.579 46.37 185.443C46.0823 184.755 46.3675 183.946 47.007 183.637ZM52.6493 196.755C53.2813 196.428 54.0399 196.714 54.3436 197.394C54.8288 198.481 55.3233 199.58 55.8273 200.693C56.1344 201.372 55.8724 202.19 55.2421 202.52C54.6118 202.851 53.8518 202.569 53.5447 201.89C53.0387 200.773 52.5421 199.669 52.0549 198.578C51.7512 197.898 52.0173 197.081 52.6493 196.755Z" fill="#FFBA55"/>
<path d="M55.3692 60C55.3692 26.8629 82.2321 0 115.369 0H401.874C435.011 0 461.874 26.8629 461.874 60V284.696C461.874 317.833 435.011 344.696 401.874 344.696H115.369C82.2322 344.696 55.3692 317.833 55.3692 284.696V60Z" fill="#6E44FF"/>
<path d="M58.3692 41.2232C58.3692 18.4562 76.8255 0 99.5924 0H423.65C446.417 0 464.874 18.4562 464.874 41.2232V41.2232H58.3692V41.2232Z" fill="#6E44FF"/>
<ellipse cx="89.1926" cy="21.4887" rx="5.89138" ry="6.13963" fill="white"/>
<ellipse cx="89.1926" cy="21.4887" rx="5.89138" ry="6.13963" fill="white"/>
<ellipse cx="108.971" cy="21.4886" rx="5.89138" ry="6.13963" fill="white"/>
<ellipse cx="108.971" cy="21.4886" rx="5.89138" ry="6.13963" fill="white"/>
<ellipse cx="128.749" cy="21.4886" rx="5.89136" ry="6.13963" fill="white"/>
<ellipse cx="128.749" cy="21.4886" rx="5.89136" ry="6.13963" fill="white"/>
<rect x="236.056" y="60.0806" width="207.46" height="131.563" rx="40" fill="white"/>
<ellipse cx="389.863" cy="124.327" rx="38.5043" ry="40.1268" fill="#EECCA9"/>
<ellipse cx="389.863" cy="124.327" rx="38.5043" ry="40.1268" fill="#6E44FF"/>
<path d="M366.581 156.288C370.924 159.724 375.918 162.159 381.232 163.433C386.546 164.707 392.06 164.79 397.407 163.676C402.754 162.563 407.813 160.279 412.25 156.975C416.686 153.671 420.399 149.422 423.142 144.511C425.884 139.599 427.595 134.137 428.16 128.485C428.725 122.833 428.131 117.12 426.419 111.725C424.706 106.33 421.914 101.375 418.226 97.1893C414.538 93.0033 410.039 89.6814 405.027 87.4434L389.863 124.327L366.581 156.288Z" fill="#FF546C"/>
<path d="M428.367 124.327C428.367 117.89 426.881 111.548 424.034 105.835C421.188 100.122 417.064 95.207 412.012 91.5042C406.959 87.8013 401.126 85.4196 395.005 84.5599C388.883 83.7003 382.653 84.388 376.841 86.565L389.863 124.327H428.367Z" fill="#FFE2B7"/>
<rect x="256.255" y="88.1474" width="12.6244" height="13.1563" rx="6.31219" fill="#6E44FF"/>
<rect x="274.972" y="91.5695" width="44.3301" height="3.42208" rx="1.71104" fill="#6E44FF"/>
<rect x="256.255" y="119.284" width="12.6244" height="13.1563" rx="6.31219" fill="#FF546C"/>
<rect x="280.241" y="123.67" width="56.8096" height="4.38545" rx="2.19272" fill="#6E44FF"/>
<rect x="256.255" y="150.421" width="12.6244" height="13.1563" rx="6.31219" fill="#FFE2B7"/>
<rect x="280.241" y="154.806" width="56.8096" height="4.38545" rx="2.19272" fill="#6E44FF"/>
<rect x="75.7266" y="60.0806" width="142.234" height="131.563" rx="40" fill="white"/>
<rect x="90.0342" y="74.5526" width="10.0995" height="75.8682" rx="5.04974" fill="#EECCA9"/>
<rect x="90.0342" y="74.5526" width="10.0995" height="75.8682" rx="5.04974" fill="#6E44FF"/>
<rect x="90.0342" y="97.3569" width="10.0995" height="53.0639" rx="5.04974" fill="#7DB5C4"/>
<rect x="90.0342" y="97.3569" width="10.0995" height="53.0639" rx="5.04974" fill="#7DB5C4"/>
<rect x="110.654" y="74.5526" width="10.0995" height="75.8682" rx="5.04974" fill="#EECCA9"/>
<rect x="110.654" y="74.5526" width="10.0995" height="75.8682" rx="5.04974" fill="#6E44FF"/>
<rect x="110.654" y="119.284" width="10.0995" height="31.1367" rx="5.04974" fill="#7DB5C4"/>
<rect x="110.654" y="119.284" width="10.0995" height="31.1367" rx="5.04974" fill="#7DB5C4"/>
<rect x="131.274" y="74.5526" width="10.0995" height="75.8682" rx="5.04974" fill="#EECCA9"/>
<rect x="131.274" y="74.5526" width="10.0995" height="75.8682" rx="5.04974" fill="#6E44FF"/>
<rect x="131.274" y="89.0246" width="10.0995" height="61.3962" rx="5.04974" fill="#7DB5C4"/>
<rect x="131.274" y="89.0246" width="10.0995" height="61.3962" rx="5.04974" fill="#7DB5C4"/>
<rect x="151.894" y="74.5526" width="10.0995" height="75.8682" rx="5.04976" fill="#EECCA9"/>
<rect x="151.894" y="74.5526" width="10.0995" height="75.8682" rx="5.04976" fill="#6E44FF"/>
<rect x="151.894" y="106.128" width="10.0995" height="44.293" rx="5.04976" fill="#7DB5C4"/>
<rect x="151.894" y="106.128" width="10.0995" height="44.293" rx="5.04976" fill="#7DB5C4"/>
<rect x="172.513" y="74.5526" width="10.0995" height="75.8682" rx="5.04975" fill="#EECCA9"/>
<rect x="172.513" y="74.5526" width="10.0995" height="75.8682" rx="5.04975" fill="#6E44FF"/>
<rect x="172.513" y="92.9715" width="10.0995" height="57.4493" rx="5.04975" fill="#7DB5C4"/>
<rect x="172.513" y="92.9715" width="10.0995" height="57.4493" rx="5.04975" fill="#7DB5C4"/>
<rect x="193.133" y="74.5526" width="10.0995" height="75.8682" rx="5.04976" fill="#EECCA9"/>
<rect x="193.133" y="74.5526" width="10.0995" height="75.8682" rx="5.04976" fill="#6E44FF"/>
<rect x="193.133" y="128.494" width="10.0995" height="21.9272" rx="5.04976" fill="#7DB5C4"/>
<rect x="193.133" y="128.494" width="10.0995" height="21.9272" rx="5.04976" fill="#7DB5C4"/>
<rect x="90.0342" y="160.069" width="56.8096" height="4.38545" rx="2.19272" fill="#6E44FF"/>
<rect x="90.0342" y="169.717" width="87.5289" height="4.38545" rx="2.19272" fill="#6E44FF"/>
<rect x="75.7266" y="214.448" width="165.379" height="107.443" rx="40" fill="white"/>
<path d="M151.527 238.754L125.802 254.393C122.346 256.494 123.835 261.811 127.88 261.811H212.163C215.774 261.811 217.536 257.403 214.92 254.913L210.55 250.755C205.817 246.252 198.927 244.849 192.811 247.144C186.168 249.636 178.676 247.754 174.001 242.417L173.791 242.177C168.186 235.78 158.795 234.336 151.527 238.754Z" fill="#FF546C"/>
<ellipse cx="189.135" cy="231.771" rx="5.68097" ry="5.92035" fill="#FBC679"/>
<rect x="97.6088" y="273.213" width="56.8096" height="4.38545" rx="2.19272" fill="#6E44FF"/>
<rect x="97.6088" y="282.861" width="87.5289" height="4.38545" rx="2.19272" fill="#6E44FF"/>
<rect x="97.6088" y="292.509" width="80.3751" height="4.38545" rx="2.19272" fill="#6E44FF"/>
<rect x="97.6088" y="302.157" width="108.569" height="4.38545" rx="2.19272" fill="#6E44FF"/>
<rect x="259.201" y="214.448" width="80.7959" height="40.3461" rx="20.1731" fill="white"/>
<ellipse cx="276.243" cy="233.525" rx="7.36419" ry="7.67452" fill="white"/>
<rect x="290.761" y="227.605" width="24.4071" height="4.38545" rx="2.19272" fill="#6E44FF"/>
<rect x="290.761" y="237.253" width="37.4523" height="4.38545" rx="2.19272" fill="#6E44FF"/>
<rect x="351.358" y="248.655" width="92.1578" height="73.2369" rx="36.6185" fill="white"/>
<path fill-rule="evenodd" clip-rule="evenodd" d="M389.084 288.693C385.368 288.277 381.158 290.506 378.587 297.565C377.193 301.393 375.496 303.853 373.532 305.137C371.507 306.46 369.398 306.408 367.51 305.665C365.667 304.939 364 303.55 362.657 302.101C361.304 300.643 360.202 299.04 359.5 297.77C359.133 297.106 359.336 296.249 359.952 295.854C360.569 295.459 361.366 295.677 361.733 296.341C362.33 297.422 363.301 298.839 364.495 300.127C365.699 301.425 367.053 302.508 368.403 303.04C369.709 303.554 370.967 303.542 372.183 302.747C373.46 301.913 374.876 300.096 376.169 296.545C379.055 288.618 384.2 285.336 389.352 285.912C394.367 286.473 398.934 290.661 400.826 296.602C401.701 299.354 402.733 300.865 403.721 301.626C404.658 302.347 405.695 302.501 406.892 302.187C408.136 301.861 409.521 301.031 410.973 299.812C412.414 298.604 413.848 297.075 415.189 295.454C419.334 290.448 427.054 289.748 431.13 295.279L435.697 301.476C436.143 302.081 436.048 302.96 435.486 303.44C434.924 303.92 434.107 303.818 433.661 303.213L429.094 297.016C426.217 293.111 420.421 293.337 417.129 297.314C415.725 299.01 414.176 300.67 412.571 302.016C410.978 303.353 409.256 304.445 407.507 304.903C405.71 305.374 403.867 305.175 402.21 303.9C400.606 302.666 399.333 300.54 398.368 297.508C396.751 292.43 392.938 289.124 389.084 288.693Z" fill="#6E44FF"/>
<path fill-rule="evenodd" clip-rule="evenodd" d="M389.139 288.693C385.439 288.275 381.231 290.518 378.66 297.663C378.401 298.383 377.649 298.74 376.98 298.462C376.311 298.183 375.978 297.373 376.238 296.653C379.117 288.654 384.253 285.33 389.41 285.913C394.426 286.481 398.984 290.716 400.87 296.71C401.746 299.494 402.778 301.024 403.766 301.793C404.7 302.52 405.731 302.674 406.923 302.359C408.163 302.03 409.545 301.192 410.996 299.96C412.434 298.739 413.867 297.194 415.207 295.556C419.348 290.497 427.068 289.788 431.14 295.378L435.701 301.641C436.144 302.248 436.045 303.127 435.48 303.603C434.916 304.079 434.099 303.973 433.657 303.365L429.095 297.103C426.223 293.159 420.445 293.386 417.157 297.404C415.755 299.117 414.208 300.794 412.605 302.155C411.015 303.505 409.294 304.609 407.544 305.073C405.745 305.55 403.9 305.347 402.244 304.058C400.642 302.811 399.373 300.666 398.41 297.606C396.792 292.464 392.979 289.128 389.139 288.693Z" fill="#7DB5C4"/>
<rect x="364.404" y="259.18" width="37.4523" height="4.38545" rx="2.19272" fill="#6E44FF"/>
<rect x="364.404" y="268.828" width="21.8822" height="4.38545" rx="2.19272" fill="#6E44FF"/>
<path d="M167.884 312.024C163.255 292.29 211.649 287.685 224.013 299.866C234.914 327.854 247.244 328.112 252.047 326.277C257.746 330.979 266.61 342.802 273.919 348.982C276.129 350.851 277.716 353.503 277.716 356.398V361.166C277.716 363.613 278.953 365.894 281.003 367.229C282.155 367.979 283.075 369.036 283.599 370.306C287.875 380.68 295.512 405.789 291.182 417.275L260.884 415.302L248.26 389.866L234.373 433.282L132.536 435.913C133.574 432.128 127.038 429.716 130.643 417.275C132.884 409.537 143.684 393.652 147.685 385.042C156.042 367.062 167.043 345.135 173.776 338.118C166.706 328.996 172.513 331.759 167.884 312.024Z" fill="#5C62A9"/>
<path d="M167.884 312.024C163.255 292.29 211.649 287.685 224.013 299.866C234.914 327.854 247.244 328.112 252.047 326.277C257.746 330.979 266.61 342.802 273.919 348.982C276.129 350.851 277.716 353.503 277.716 356.398V361.166C277.716 363.613 278.953 365.894 281.003 367.229C282.155 367.979 283.075 369.036 283.599 370.306C287.875 380.68 295.512 405.789 291.182 417.275L260.884 415.302L248.26 389.866L234.373 433.282L132.536 435.913C133.574 432.128 127.038 429.716 130.643 417.275C132.884 409.537 143.684 393.652 147.685 385.042C156.042 367.062 167.043 345.135 173.776 338.118C166.706 328.996 172.513 331.759 167.884 312.024Z" fill="url(#paint0_linear)"/>
<mask id="mask0" mask-type="alpha" maskUnits="userSpaceOnUse" x="132" y="290" width="163" height="147">
<path d="M166.201 304.788C161.572 285.054 211.649 287.685 224.013 299.866C234.914 327.854 247.244 328.112 252.047 326.277C257.485 330.764 265.807 341.737 272.909 348.101C275.669 350.575 277.654 354.031 277.554 357.737L277.439 362.009C277.347 365.429 279.01 368.658 281.847 370.57L284.449 372.324C291.603 393.813 291.814 402.145 294.759 415.302L260.884 415.302L248.259 389.866L234.373 433.282L132.115 436.352C133.799 430.212 137.249 407.496 147.685 385.042C156.042 367.062 167.043 345.135 173.776 338.118C166.706 328.996 170.83 324.523 166.201 304.788Z" fill="#FFBA55"/>
</mask>
<g mask="url(#mask0)">
<path d="M250.784 378.902L247.418 392.497L250.784 406.531H293.497L291.813 380.657H287.395C289.078 399.295 273.508 402.584 273.508 402.584C263.611 401.646 254.947 395.15 252.317 385.562C251.655 383.148 251.097 380.821 250.784 378.902Z" fill="#3A4187"/>
</g>
<path d="M255.624 353.028C251.03 345.924 248.47 332.782 244.051 329.128L254.151 323.427L264.671 332.855L266.775 351.932C264.811 351.567 258.275 348.643 259.621 354.783C261.305 362.457 261.094 360.264 259.621 365.088C258.443 368.948 258.429 386.504 260.884 394.909C257.938 389.428 256.886 380.218 256.886 371.886C256.886 363.064 262.146 363.115 255.624 353.028Z" fill="#3A4187"/>
<mask id="mask1" mask-type="alpha" maskUnits="userSpaceOnUse" x="129" y="293" width="163" height="141">
<path d="M168.305 312.244C163.676 292.509 211.649 287.685 224.013 299.866C234.914 327.854 247.244 331.182 252.047 329.347C258.78 334.902 273.003 348.117 276.033 356.537C279.063 364.957 277.296 369.985 276.033 371.447C281.419 382.323 288.657 411.355 291.603 424.511L267.617 428.019L248.049 390.085L234.373 433.282L131.484 431.089C124.751 419.687 137.67 406.618 148.106 384.165C156.463 366.185 166.201 346.45 172.934 339.433C165.865 330.312 172.934 331.978 168.305 312.244Z" fill="#FFBA55"/>
</mask>
<g mask="url(#mask1)">
<path d="M180.509 315.313C170.073 311.103 173.706 303.327 174.828 298.649L163.676 289.439L156.522 307.42L170.199 341.626C173.986 337.679 179.835 331.364 187.242 328.908C196.5 325.839 202.812 332.855 213.753 343.819C222.506 352.59 230.585 351.859 233.531 350.397C231.848 350.836 218.171 346.012 213.753 339.872C206.178 329.347 193.554 320.576 180.509 315.313Z" fill="#3A4187"/>
<path d="M181.771 416.179C173.776 427.581 144.038 423.634 126.224 421.003L118.649 431.089L231.006 437.667V431.089C227.359 429.189 224.189 424.511 217.119 421.003C214.368 419.637 210.359 411.696 206.372 401.781C202.37 391.828 188.508 392.964 186.22 403.445C185.001 409.028 183.545 413.649 181.771 416.179Z" fill="#3A4187"/>
<path d="M228.902 387.235C222.506 371.096 209.755 331.978 195.448 339.653C195.448 339.653 200.427 375.979 211.649 389.427L243.21 416.179L249.101 397.76C245.174 399.806 235.298 403.373 228.902 387.235Z" fill="#3A4187"/>
</g>
<path d="M219.644 425.827C205.168 425.827 187.172 373.685 183.665 356.975C186.611 325.473 209.545 339.189 214.595 360.264C222.169 380.316 230.754 400.08 234.794 402.968C238.833 405.855 280.031 405.766 297.284 406.969L282.766 425.827H219.644Z" fill="#5B62A9"/>
<path d="M194.591 408.575C194.317 407.481 194.253 406.25 193.975 404.338L194.591 408.575C195.197 410.994 196.83 412.741 204.074 419.687C211.77 427.066 228.061 419.249 284.449 423.634L281.083 433.282H198.183L194.591 408.575Z" fill="#3A4187"/>
<path d="M201.549 299.745C210.064 299.745 222.649 306.245 230.4 310.677C241.511 322.8 256.291 343.527 226.525 329.448C189.316 311.85 171.705 299.745 201.549 299.745Z" fill="#141D78"/>
<mask id="mask2" mask-type="alpha" maskUnits="userSpaceOnUse" x="183" y="293" width="64" height="52">
<path d="M193.554 293.386C202.798 293.386 220.907 302.888 229.323 307.858C241.386 321.453 260.282 357.945 229.323 339.433C215.436 331.13 161.151 293.386 193.554 293.386Z" fill="#E0450F"/>
</mask>
<g mask="url(#mask2)">
<path d="M228.06 319.26C221.327 327.593 195.377 311.22 182.613 303.911L216.698 336.364C224.834 330.809 233.481 312.551 228.06 319.26Z" fill="black"/>
</g>
<path d="M231.848 398.637C232.689 391.255 234.709 373.465 236.056 361.361C237.106 351.921 229.8 342.277 224.063 336.802C234.538 346.02 243.765 341.952 247.183 338.006C247.628 337.428 247.507 337.598 247.628 337.46C247.491 337.639 247.343 337.822 247.183 338.006C246.26 339.207 244.696 341.594 243.42 344.696C241.882 348.437 244.788 368.103 245.932 375.345C246.211 377.114 246.162 378.917 245.76 380.661C244.518 386.04 241.667 398.284 240.054 404.338C237.879 403.973 236.771 403.417 235.425 403.242C234.078 403.066 232.479 400.099 231.848 398.637Z" fill="white"/>
<path d="M231.848 398.637C232.689 391.255 234.709 373.465 236.056 361.361C237.106 351.921 229.8 342.277 224.063 336.802C234.538 346.02 243.765 341.952 247.183 338.006C247.628 337.428 247.507 337.598 247.628 337.46C247.491 337.639 247.343 337.822 247.183 338.006C246.26 339.207 244.696 341.594 243.42 344.696C241.882 348.437 244.788 368.103 245.932 375.345C246.211 377.114 246.162 378.917 245.76 380.661C244.518 386.04 241.667 398.284 240.054 404.338C237.879 403.973 236.771 403.417 235.425 403.242C234.078 403.066 232.479 400.099 231.848 398.637Z" fill="url(#paint1_linear)"/>
<path d="M224.273 424.73H217.54L215.226 430.87H222.169L224.273 424.73Z" fill="white"/>
<path d="M224.273 424.73H217.54L215.226 430.87H222.169L224.273 424.73Z" fill="url(#paint2_linear)"/>
<path d="M220.276 333.294L230.654 313.725L255.061 325.127L249.38 334.995C238.944 350.256 226.167 339.653 220.276 333.294Z" fill="#FFC2A0"/>
<mask id="mask3" mask-type="alpha" maskUnits="userSpaceOnUse" x="218" y="313" width="38" height="31">
<path d="M218.704 335.074L230.772 313.65L255.332 325.135L249.616 335.074C239.114 350.446 224.632 341.479 218.704 335.074Z" fill="#FFA188"/>
</mask>
<g mask="url(#mask3)">
<path d="M242.96 332.033C235.079 331.212 228.84 320.284 226.706 314.923L250.184 321.254C251.06 325.189 250.841 332.855 242.96 332.033Z" fill="#F29386"/>
</g>
<path d="M214.488 305.724C209.813 295.944 219.082 291.871 225.193 298.751C214.17 229.906 257.892 248.697 262.793 261.327C279.613 304.673 278.097 312.901 261.147 323.943C245.354 334.232 233.432 322.69 228.718 314.555C225.923 315.687 219.164 315.504 214.488 305.724Z" fill="#FFC2A0"/>
<mask id="mask4" mask-type="alpha" maskUnits="userSpaceOnUse" x="213" y="250" width="61" height="77">
<path d="M214.501 305.715C209.821 295.937 219.089 291.86 225.203 298.736C214.15 229.898 258.389 250.673 263.257 263.316C269.465 279.443 282.818 309.534 264.268 321.631C248.478 331.928 233.453 322.671 228.735 314.539C225.94 315.672 219.181 315.493 214.501 305.715Z" fill="#CCCCCC"/>
</mask>
<g mask="url(#mask4)">
<path d="M235.606 268.952C227.72 273.676 225.111 290.615 224.792 298.495L220.375 287.408L227.108 259.749L253.224 250.752C257.722 254.114 266.379 261.679 265.024 265.045C263.329 269.252 245.464 263.048 235.606 268.952Z" fill="#F29386"/>
<ellipse rx="6.00544" ry="3.45113" transform="matrix(0.917158 -0.362792 0.34616 0.95042 269.449 290.385)" fill="#F67E6D"/>
<ellipse rx="6.00544" ry="3.45113" transform="matrix(0.917158 -0.362792 0.34616 0.95042 239.832 301.405)" fill="#F67E6D"/>
</g>
<path d="M227.85 319.48C222.847 320.239 215.974 316.806 208.622 302.564C199.432 284.76 194.502 277.631 203.405 262.841C211.857 248.802 214.027 234.748 220.504 233.02C223.001 232.354 224.562 233.389 225.201 235.034C229.583 225.243 251.351 214.258 257.594 234.458C265.801 229.112 274.155 240.699 275.259 243.638C276.828 247.812 276.655 251.694 274.227 255.553C270.799 261 264.206 263.202 257.967 263.375C242.378 263.807 238.659 257.777 234.446 262.468C222.693 275.554 223.809 287.757 225.349 299.425C222.509 297.31 217.816 293.485 214.309 297.566C212.458 299.72 212.989 305.925 220.533 312.906C221.462 313.766 225.221 316.006 228.718 314.555C230.644 317.352 227.85 319.48 227.85 319.48Z" fill="#5E1212"/>
<mask id="mask5" mask-type="alpha" maskUnits="userSpaceOnUse" x="198" y="223" width="79" height="97">
<path d="M227.85 319.48C222.847 320.239 215.974 316.806 208.622 302.564C199.432 284.76 194.502 277.631 203.405 262.841C211.857 248.802 214.027 234.749 220.504 233.02C223 232.354 224.562 233.389 225.201 235.034C229.583 225.243 251.351 214.258 257.594 234.458C265.801 229.112 274.155 240.699 275.259 243.638C276.828 247.812 276.655 251.694 274.227 255.553C270.799 261 264.206 263.202 257.967 263.375C242.378 263.807 238.659 257.777 234.446 262.468C222.693 275.554 223.809 287.757 225.349 299.425C222.509 297.31 217.816 293.485 214.309 297.566C212.458 299.72 212.989 305.925 220.533 312.906C221.462 313.766 225.221 316.006 228.718 314.555C230.644 317.352 227.85 319.48 227.85 319.48Z" fill="#5E1212"/>
</mask>
<g mask="url(#mask5)">
<path d="M209.545 293.606C213.248 306.937 224.554 314.071 229.744 315.971V322.33H223.011C213.262 314.802 193.596 299.57 192.923 298.868C192.081 297.991 181.14 265.539 181.14 262.469C181.14 260.013 194.466 236.741 201.129 225.412L259.832 219.053C260.393 222.196 258.906 227.868 248.47 225.412C235.425 222.342 229.744 250.847 223.011 242.296C220.634 239.278 213.963 248.655 211.018 256.768C205.705 271.399 204.916 276.941 209.545 293.606Z" fill="#7E1B1B"/>
</g>
<ellipse rx="1.90152" ry="3.27643" transform="matrix(0.946385 -0.323042 0.299833 0.953992 245.093 289.593)" fill="black"/>
<path d="M235.754 284.858C234.383 278.109 240.202 273.272 245.929 278.229" stroke="black" stroke-width="3" stroke-linecap="round"/>
<path d="M254.174 281.195C256.345 279.521 261.42 276.787 264.347 279.246" stroke="black" stroke-width="3" stroke-linecap="round"/>
<ellipse rx="1.89991" ry="3.27909" transform="matrix(0.957731 -0.287666 0.266559 0.963819 259.545 286.385)" fill="black"/>
<path d="M254.766 289.311C256.35 291.124 259.901 295.224 261.435 297.121C262.97 299.017 260.231 302.559 258.67 304.094" stroke="#E17C6E" stroke-width="2" stroke-linecap="round"/>
<path d="M234.793 403.022C232.689 404.192 228.229 407.759 227.219 412.67" stroke="#212973" stroke-width="3"/>
<path d="M151.893 408.285C158.065 410.331 172.345 409.162 180.088 388.112" stroke="#212973" stroke-width="3"/>
<path d="M173.776 338.075C178.497 330.866 191.615 322.804 202.946 332.492C217.111 344.603 217.876 352.388 229.744 351.09" stroke="#212973" stroke-width="3" stroke-linecap="round"/>
<path d="M223.074 301.424C221.409 299.75 218.007 297.278 217.722 300.773C217.517 303.28 218.678 306.429 220.581 308.479M220.581 308.479C221.995 310.002 223.818 310.918 225.796 310.511C227.504 310.16 227.144 309.305 226.257 308.485C224.711 307.053 222.364 307.317 220.581 308.479V308.479Z" stroke="#E17C6E" stroke-width="2" stroke-linecap="round"/>
<path d="M259.832 360.264C260.042 362.238 261.347 366.316 264.882 366.842M272.667 366.842C273.508 366.842 275.781 366.36 278.137 364.43" stroke="#212973" stroke-width="2"/>
<path d="M243.21 348.862C247.418 348.131 255.119 344.477 258.99 335.706" stroke="#212973" stroke-width="2" stroke-linecap="round"/>
<path d="M270.364 304.901C267.298 304.619 266.814 323.744 266.835 324.182L272.877 328.47C272.585 326.216 271.909 317.599 272.153 313.371C272.458 308.086 273.431 305.183 270.364 304.901Z" fill="#FFC2A0" stroke="#E17C6E" stroke-width="2"/>
<path d="M270.461 321.378C273.258 322.407 274.78 335.953 275.191 342.598V351.386C272.655 351.743 268.7 354.327 265.148 351.386C261.953 348.74 262.583 347.164 262.583 345.235C262.583 345.235 259.426 347.746 257.834 345.235C256.549 343.208 255.653 340.948 257.423 340.091C254.626 339.919 254.955 336.233 256.189 335.375C253.104 334.518 254.761 331.095 255.653 330.166C253.802 330.166 252.773 327.165 253.596 324.808C254.419 322.45 266.965 320.092 270.461 321.378Z" fill="#FFC2A0"/>
<mask id="mask6" mask-type="alpha" maskUnits="userSpaceOnUse" x="253" y="321" width="23" height="34">
<path d="M270.461 321.378C273.258 322.407 274.78 335.953 275.191 342.598V351.386C272.655 351.743 267.066 356.313 264.162 352.682C262.188 350.214 262.583 347.164 262.583 345.235C262.583 345.235 259.426 347.746 257.834 345.235C256.549 343.208 255.653 340.948 257.423 340.091C254.626 339.919 254.955 336.233 256.189 335.375C253.104 334.518 254.761 331.095 255.653 330.166C253.802 330.166 252.773 327.165 253.596 324.808C254.419 322.45 266.965 320.092 270.461 321.378Z" fill="#FFA188"/>
</mask>
<g mask="url(#mask6)">
<path d="M266.924 344.045C265.819 343.881 263.438 344.936 262.386 345.485C261.531 346.65 259.781 349.062 259.623 349.391C259.465 349.72 262.188 352.819 263.57 354.327C266.858 354.532 273.593 354.902 274.225 354.738C274.856 354.573 275.935 351.928 276.395 350.625C275.145 350.557 273.08 350.461 270.081 350.625C267.082 350.79 266.332 346.307 266.924 344.045Z" fill="#E17C6E"/>
</g>
<path d="M255.777 330.017C258.04 329.159 263.14 327.53 265.444 327.873M256.394 335.161C258.794 334.161 264.086 332.289 266.061 332.803M257.423 340.305C259.411 339.09 264.004 336.919 266.472 337.947M260.302 345.878C262.222 344.949 266.554 343.306 268.529 344.163" stroke="#E17C6E" stroke-width="2"/>
<path d="M256.466 329.857C255.677 330.131 253.98 329.98 253.507 327.183C253.033 324.387 254.888 323.414 255.874 323.277C260.215 322.18 269.252 320.315 270.673 321.631" stroke="#E17C6E" stroke-width="2"/>
<rect x="226.377" y="425.827" width="92.9995" height="4.82398" fill="#357290"/>
<path d="M305.7 372.763H379.763L351.358 430.651H280.662L305.7 372.763Z" fill="#7DB5C4"/>
<mask id="mask7" mask-type="alpha" maskUnits="userSpaceOnUse" x="280" y="372" width="100" height="59">
<path d="M305.7 372.324H379.763L351.358 430.212H280.662L305.7 372.324Z" fill="#7DB5C4"/>
</mask>
<g mask="url(#mask7)">
<path d="M378.29 411.355C332.506 419.775 310.119 384.165 304.648 365.308L404.802 347.766C415.041 365.454 424.075 402.935 378.29 411.355Z" fill="#64A6C0"/>
</g>
<mask id="mask8" mask-type="alpha" maskUnits="userSpaceOnUse" x="278" y="371" width="102" height="63">
<path d="M303.867 371.886H379.974L350.785 433.282H278.137L303.867 371.886Z" fill="#7DB5C4"/>
</mask>
<g mask="url(#mask8)">
<path d="M308.856 373.513L282.345 434.598H273.087L296.232 365.308H372.82L381.236 373.513H308.856Z" fill="#163D56"/>
</g>
<ellipse cx="333.895" cy="404.338" rx="5.68095" ry="4.38542" fill="#466B7C"/>
<mask id="mask9" mask-type="alpha" maskUnits="userSpaceOnUse" x="328" y="399" width="12" height="10">
<path d="M339.576 404.338C339.576 406.76 337.032 408.723 333.895 408.723C330.757 408.723 328.214 406.76 328.214 404.338C328.214 401.916 330.757 399.953 333.895 399.953C337.032 399.953 339.576 401.916 339.576 404.338Z" fill="#466B7C"/>
</mask>
<g mask="url(#mask9)">
<path d="M350.096 410.697C338.482 409.118 326.46 399.368 321.902 394.69C329.476 393.155 344.794 390.041 345.467 389.866C346.309 389.647 364.614 412.67 350.096 410.697Z" fill="#133B54"/>
</g>
<ellipse rx="1.84223" ry="3.27159" transform="matrix(0.908128 -0.418693 0.390764 0.920491 336.272 396.232)" fill="#133B54"/>
<ellipse rx="1.73532" ry="2.76685" transform="matrix(0.503931 0.863744 -0.844702 0.535236 339.11 397.536)" fill="#133B54"/>
<rect x="69.3314" y="430.78" width="283.677" height="8.66592" fill="#FF546C"/>
<mask id="mask10" mask-type="alpha" maskUnits="userSpaceOnUse" x="69" y="430" width="364" height="10">
<rect x="69.4145" y="430.651" width="363.582" height="8.77094" fill="#FF546C"/>
</mask>
<g mask="url(#mask10)">
<rect x="191.45" y="422.757" width="241.546" height="64.4661" fill="#B82D40"/>
</g>
<path d="M406.064 33.3175C406.064 26.3002 411.512 20.6116 418.233 20.6116H483.948C490.669 20.6116 496.118 26.3002 496.118 33.3175V53.1387C496.118 60.156 490.669 65.8447 483.948 65.8447H431.596C428.779 65.8447 426.049 66.8653 423.872 68.7324L413.609 77.5341C410.864 80.4931 406.064 78.4638 406.064 74.3441V33.3175Z" fill="#7DB5C4"/>
<rect x="420.372" y="31.1367" width="39.876" height="4.38545" rx="2.19272" fill="white"/>
<rect x="420.372" y="40.7847" width="61.4385" height="4.38545" rx="2.19272" fill="white"/>
<rect x="420.372" y="50.4326" width="56.4171" height="4.38542" rx="2.19271" fill="white"/>
<path d="M95.084 211.806C95.084 206.484 90.934 202.169 85.8148 202.169H35.7609C30.6416 202.169 26.4916 206.484 26.4916 211.806V226.839C26.4916 232.161 30.6416 236.476 35.7609 236.476H75.6366C77.7825 236.476 79.8619 237.25 81.5201 238.666L89.3371 245.342C91.4282 247.586 95.084 246.047 95.084 242.922V211.806Z" fill="#EE6754"/>
<rect x="36.3307" y="210.372" width="10.1202" height="2.92961" rx="1.4648" fill="white"/>
<rect x="36.3307" y="216.817" width="18.8348" height="2.92961" rx="1.4648" fill="white"/>
<rect x="36.3307" y="223.262" width="39.6374" height="2.92956" rx="1.46478" fill="white"/>
<rect x="419.53" y="176.295" width="98.47" height="102.619" rx="30" fill="#386D95"/>
<path fill-rule="evenodd" clip-rule="evenodd" d="M460.349 240.953C472.492 240.953 482.122 230.728 482.122 218.395C482.122 206.062 472.492 195.837 460.349 195.837C448.205 195.837 438.576 206.062 438.576 218.395C438.576 230.728 448.205 240.953 460.349 240.953ZM460.349 245.146C474.526 245.146 486.018 233.17 486.018 218.395C486.018 203.621 474.526 191.644 460.349 191.644C446.172 191.644 434.679 203.621 434.679 218.395C434.679 233.17 446.172 245.146 460.349 245.146Z" fill="white"/>
<path fill-rule="evenodd" clip-rule="evenodd" d="M475.598 236.192C476.35 235.365 477.603 235.328 478.396 236.111L499.511 256.958C500.304 257.74 500.337 259.046 499.584 259.874C498.832 260.702 497.579 260.738 496.786 259.955L475.671 239.109C474.878 238.326 474.846 237.02 475.598 236.192Z" fill="white"/>
<defs>
<linearGradient id="paint0_linear" x1="182.192" y1="358.291" x2="99.6034" y2="325.611" gradientUnits="userSpaceOnUse">
<stop stop-color="#5B62A9"/>
<stop offset="1" stop-color="#060A2B" stop-opacity="0"/>
</linearGradient>
<linearGradient id="paint1_linear" x1="218.803" y1="431.089" x2="250.06" y2="342.63" gradientUnits="userSpaceOnUse">
<stop offset="0.362526" stop-color="#B1B6E9"/>
<stop offset="1" stop-color="white" stop-opacity="0"/>
</linearGradient>
<linearGradient id="paint2_linear" x1="218.803" y1="431.089" x2="250.06" y2="342.63" gradientUnits="userSpaceOnUse">
<stop offset="0.362526" stop-color="#B1B6E9"/>
<stop offset="1" stop-color="white" stop-opacity="0"/>
</linearGradient>
</defs>
</svg>
