<svg width="48" height="48" viewBox="0 0 48 48" fill="none" xmlns="http://www.w3.org/2000/svg">
<g clip-path="url(#clip0)">
<path d="M47.9531 14.1121C47.8406 11.5617 47.4282 9.80831 46.8374 8.28897C46.2279 6.67623 45.2902 5.23235 44.0617 4.03204C42.8614 2.81305 41.408 1.86584 39.8139 1.26587C38.2858 0.675059 36.5415 0.262625 33.9911 0.150176C31.4216 0.0282037 30.6059 0 24.089 0C17.5721 0 16.7564 0.0282037 14.1965 0.140652C11.646 0.253101 9.89264 0.665902 8.37366 1.25635C6.76056 1.86584 5.31667 2.80353 4.11636 4.03204C2.89737 5.23235 1.95053 6.68575 1.35019 8.27982C0.759379 9.80831 0.346945 11.5522 0.234496 14.1026C0.112524 16.6721 0.0843201 17.4878 0.0843201 24.0047C0.0843201 30.5216 0.112524 31.3373 0.224973 33.8972C0.337421 36.4477 0.750222 38.2011 1.34104 39.7204C1.95053 41.3331 2.89737 42.777 4.11636 43.9773C5.31667 45.1963 6.77008 46.1435 8.36414 46.7435C9.89264 47.3343 11.6365 47.7468 14.1873 47.8592C16.7469 47.972 17.563 47.9999 24.0799 47.9999C30.5968 47.9999 31.4125 47.972 33.9724 47.8592C36.5229 47.7468 38.2763 47.3343 39.7952 46.7435C43.0211 45.4963 45.5715 42.9459 46.8187 39.7204C47.4091 38.1919 47.8219 36.4477 47.9344 33.8972C48.0468 31.3373 48.075 30.5216 48.075 24.0047C48.075 17.4878 48.0655 16.6721 47.9531 14.1121ZM43.6306 33.7097C43.5273 36.0539 43.1335 37.3198 42.8053 38.1637C41.9988 40.2548 40.3392 41.9144 38.248 42.721C37.4041 43.0492 36.1291 43.4429 33.7941 43.5459C31.2623 43.6587 30.503 43.6865 24.0985 43.6865C17.6941 43.6865 16.9253 43.6587 14.4027 43.5459C12.0585 43.4429 10.7926 43.0492 9.94868 42.721C8.90807 42.3364 7.96086 41.7269 7.19204 40.9299C6.395 40.1515 5.78551 39.2138 5.40091 38.1732C5.07272 37.3293 4.67897 36.0539 4.57604 33.7192C4.46323 31.1875 4.43539 30.4278 4.43539 24.0234C4.43539 17.6189 4.46323 16.8501 4.57604 14.3279C4.67897 11.9837 5.07272 10.7178 5.40091 9.87388C5.78551 8.8329 6.395 7.88606 7.20156 7.11687C7.97954 6.31984 8.91723 5.71034 9.9582 5.32611C10.8021 4.99792 12.0775 4.60417 14.4122 4.50088C16.9439 4.38843 17.7036 4.36023 24.1077 4.36023C30.5217 4.36023 31.281 4.38843 33.8036 4.50088C36.1478 4.60417 37.4137 4.99792 38.2576 5.32611C39.2982 5.71034 40.2454 6.31984 41.0142 7.11687C41.8112 7.89522 42.4207 8.8329 42.8053 9.87388C43.1335 10.7178 43.5273 11.9928 43.6306 14.3279C43.743 16.8596 43.7712 17.6189 43.7712 24.0234C43.7712 30.4278 43.743 31.178 43.6306 33.7097Z" fill="white"/>
<path d="M24.089 11.6741C17.2817 11.6741 11.7585 17.1969 11.7585 24.0046C11.7585 30.8123 17.2817 36.3351 24.089 36.3351C30.8967 36.3351 36.4196 30.8123 36.4196 24.0046C36.4196 17.1969 30.8967 11.6741 24.089 11.6741ZM24.089 32.0031C19.6727 32.0031 16.0905 28.4212 16.0905 24.0046C16.0905 19.588 19.6727 16.0061 24.089 16.0061C28.5057 16.0061 32.0875 19.588 32.0875 24.0046C32.0875 28.4212 28.5057 32.0031 24.089 32.0031V32.0031Z" fill="white"/>
<path d="M39.7861 11.1867C39.7861 12.7764 38.4971 14.0653 36.9071 14.0653C35.3174 14.0653 34.0285 12.7764 34.0285 11.1867C34.0285 9.59669 35.3174 8.30811 36.9071 8.30811C38.4971 8.30811 39.7861 9.59669 39.7861 11.1867V11.1867Z" fill="white"/>
</g>
<defs>
<clipPath id="clip0">
<rect width="48" height="48" fill="white"/>
</clipPath>
</defs>
</svg>
