<svg width="48" height="48" viewBox="0 0 48 48" fill="none" xmlns="http://www.w3.org/2000/svg">
<g clip-path="url(#clip0)">
<path d="M5.45718 -0.0234375C2.15744 -0.0234375 0 2.14334 0 4.99127C0 7.77631 2.09317 10.0049 5.33057 10.0049H5.39319C8.75748 10.0049 10.8512 7.77631 10.8512 4.99127C10.7883 2.14334 8.75748 -0.0234375 5.45718 -0.0234375V-0.0234375Z" fill="white"/>
<path d="M0.57019 13.9673H10.2167V42.9893H0.57019V13.9673Z" fill="white"/>
<path d="M33.8945 13.2861C28.6905 13.2861 25.201 18.1761 25.201 18.1761V13.9673H15.5542V42.9893H25.2004V26.7823C25.2004 25.9146 25.2633 25.0484 25.5182 24.4279C26.2156 22.6954 27.8026 20.9005 30.4676 20.9005C33.9582 20.9005 35.3543 23.5619 35.3543 27.4634V42.9893H45V26.3486C45 17.4343 40.2407 13.2861 33.8945 13.2861V13.2861Z" fill="white"/>
</g>
<defs>
<clipPath id="clip0">
<rect width="48" height="48" fill="white"/>
</clipPath>
</defs>
</svg>
