<svg width="48" height="48" viewBox="0 0 48 48" fill="none" xmlns="http://www.w3.org/2000/svg">
<path d="M44.8696 1.04346H3.13044C1.98252 1.04346 1.04349 1.98249 1.04349 3.13041V44.8695C1.04349 46.0175 1.98252 46.9565 3.13044 46.9565H44.8696C46.0175 46.9565 46.9565 46.0175 46.9565 44.8695V3.13041C46.9565 1.98249 46.0175 1.04346 44.8696 1.04346Z" fill="#CCE4FF"/>
<path d="M44.8696 0H3.13043C1.40472 0 0 1.40472 0 3.13043V44.8696C0 46.5953 1.40472 48 3.13043 48H44.8696C46.5953 48 48 46.5953 48 44.8696V3.13043C48 1.40472 46.5953 0 44.8696 0ZM45.913 44.8696C45.913 45.4453 45.4443 45.913 44.8696 45.913H3.13043C2.55571 45.913 2.08696 45.4453 2.08696 44.8696V3.13043C2.08696 2.55571 2.55571 2.08696 3.13043 2.08696H44.8696C45.4443 2.08696 45.913 2.55571 45.913 3.13043V44.8696Z" fill="#6F34C5"/>
<path d="M28.1739 8.34784H13.5652C12.9895 8.34784 12.5217 8.81557 12.5217 9.39132V38.6087C12.5217 39.186 12.9895 39.6522 13.5652 39.6522H28.1739C32.2016 39.6522 35.4783 36.3745 35.4783 32.3478V30.2609C35.4783 27.6023 34.0455 25.2784 31.9168 24C34.0455 22.7227 35.4783 20.3978 35.4783 17.7391V15.6522C35.4783 11.6245 32.2016 8.34784 28.1739 8.34784ZM33.3913 30.2609V32.3478C33.3913 35.2245 31.0506 37.5652 28.1739 37.5652H14.6087V25.0435H28.1739C31.0506 25.0435 33.3913 27.3842 33.3913 30.2609ZM33.3913 17.7391C33.3913 20.6158 31.0506 22.9565 28.1739 22.9565H14.6087V10.4348H28.1739C31.0506 10.4348 33.3913 12.7755 33.3913 15.6522V17.7391Z" fill="#6F34C5"/>
</svg>
