<svg width="48" height="48" viewBox="0 0 48 48" fill="none" xmlns="http://www.w3.org/2000/svg">
<g clip-path="url(#clip0)">
<path d="M3.02231 1.58899L6.1376 41.4436C6.18437 42.0421 6.58947 42.5524 7.16174 42.7338L23.5545 47.9311C23.8444 48.023 24.1556 48.023 24.4455 47.9311L40.8383 42.7338C41.4105 42.5524 41.8156 42.0421 41.8624 41.4436L44.9777 1.58899C45.0447 0.732139 44.3675 0 43.5081 0H4.492C3.63261 0 2.95542 0.732139 3.02231 1.58899ZM36.9887 13.9545H16.6857L17.2985 19.6048H36.5471L35.288 35.7128L24.0001 39.2916L12.7122 35.7128L12.0543 27.2973H17.9791V31.4253L24.1584 33.0837L30.3007 31.4253L30.7773 24.8465H11.8627L10.6069 8.78069H37.393L36.9887 13.9545Z" fill="#FC490B"/>
</g>
<defs>
<clipPath id="clip0">
<rect width="48" height="48" fill="white"/>
</clipPath>
</defs>
</svg>
