<svg width="48" height="48" viewBox="0 0 48 48" fill="none" xmlns="http://www.w3.org/2000/svg">
<path d="M18.75 1.5C14.2031 1.5 10.5 5.20312 10.5 9.75C10.5 12.2344 11.6133 14.4668 13.3594 15.9785C10.7637 17.373 9 20.1094 9 23.25C9 26.0391 10.4004 28.5059 12.5215 30C10.4004 31.4941 9 33.9609 9 36.75C9 41.2969 12.7031 45 17.25 45C21.7969 45 25.5 41.2969 25.5 36.75V18H30.75C35.2969 18 39 14.2969 39 9.75C39 5.20312 35.2969 1.5 30.75 1.5H18.75ZM18.75 4.5H30.75C33.6445 4.5 36 6.85547 36 9.75C36 12.6445 33.6445 15 30.75 15H18.75C15.8555 15 13.5 12.6445 13.5 9.75C13.5 6.85547 15.8555 4.5 18.75 4.5ZM17.25 18H22.5V28.5H17.25C14.3555 28.5 12 26.1445 12 23.25C12 20.3555 14.3555 18 17.25 18ZM31.5 18C28.1836 18 25.5 20.6836 25.5 24C25.5 27.3164 28.1836 30 31.5 30C34.8164 30 37.5 27.3164 37.5 24C37.5 20.6836 34.8164 18 31.5 18ZM17.25 31.5H22.5V36.75C22.5 39.6445 20.1445 42 17.25 42C14.3555 42 12 39.6445 12 36.75C12 33.8555 14.3555 31.5 17.25 31.5Z" fill="#6E44FF"/>
</svg>
