<svg width="48" height="48" viewBox="0 0 48 48" fill="none" xmlns="http://www.w3.org/2000/svg">
<path d="M36 6H12C8.686 6 6 8.686 6 12V36C6 39.314 8.686 42 12 42H36C39.314 42 42 39.314 42 36V12C42 8.686 39.314 6 36 6Z" fill="#C767E5"/>
<path d="M36 40H12C9.791 40 8 38.209 8 36V12C8 9.791 9.791 8 12 8H36C38.209 8 40 9.791 40 12V36C40 38.209 38.209 40 36 40Z" fill="url(#paint0_linear)"/>
<path d="M24.209 31.946H21.875C21.671 31.946 21.488 31.822 21.411 31.633L19.309 26.427C19.225 26.222 19.138 25.844 19.047 25.292H19.011C18.969 25.553 18.869 25.946 18.713 26.474L16.603 31.635C16.526 31.823 16.343 31.946 16.14 31.946H13.801C13.432 31.946 13.19 31.559 13.351 31.227L17.023 23.683C17.088 23.55 17.09 23.396 17.03 23.261L13.666 15.704C13.52 15.373 13.762 15 14.124 15H16.55C16.76 15 16.948 15.131 17.02 15.329L18.75 20.081C18.895 20.483 19.024 20.96 19.139 21.511H19.175C19.246 21.185 19.379 20.701 19.573 20.06C19.578 20.044 19.584 20.027 19.59 20.012L21.511 15.312C21.587 15.123 21.77 15 21.973 15H24.105C24.47 15 24.712 15.378 24.559 15.71L21.103 23.191C21.041 23.325 21.042 23.479 21.104 23.612L24.662 31.234C24.816 31.566 24.574 31.946 24.209 31.946ZM33.502 31.723H31.827C31.551 31.723 31.327 31.499 31.327 31.223V30.168H31.293C30.683 31.389 29.788 31.999 28.609 31.999C27.525 31.999 26.653 31.501 25.992 30.504C25.332 29.507 25.001 28.116 25.001 26.328C25.001 24.46 25.366 22.963 26.093 21.838C26.821 20.712 27.775 20.15 28.955 20.15C30.073 20.15 30.852 20.672 31.293 21.717H31.327V15.499C31.327 15.223 31.551 14.999 31.827 14.999H33.502C33.778 14.999 34.002 15.223 34.002 15.499V31.223C34.002 31.5 33.778 31.723 33.502 31.723ZM31.377 26.229V25.38C31.377 24.645 31.213 24.034 30.886 23.549C30.559 23.064 30.133 22.821 29.608 22.821C29.015 22.821 28.552 23.124 28.219 23.731C27.886 24.338 27.72 25.171 27.72 26.23C27.72 27.223 27.881 27.988 28.203 28.525C28.525 29.062 28.971 29.331 29.541 29.331C30.083 29.331 30.524 29.048 30.866 28.481C31.207 27.914 31.377 27.163 31.377 26.229Z" fill="white"/>
<defs>
<linearGradient id="paint0_linear" x1="8" y1="24" x2="40" y2="24" gradientUnits="userSpaceOnUse">
<stop stop-color="#7819A2"/>
<stop offset="1" stop-color="#771AA9"/>
</linearGradient>
</defs>
</svg>
