<svg width="48" height="48" viewBox="0 0 48 48" fill="none" xmlns="http://www.w3.org/2000/svg">
<path d="M48 24C48 27.1268 47.4024 30.1136 46.3141 32.8536C45.7322 34.3191 45.0102 35.714 44.1638 37.0208C43.1098 38.6508 41.8628 40.1447 40.4561 41.4691C39.6323 42.2459 38.7546 42.9639 37.8278 43.6183C33.9193 46.3788 29.1497 48 24 48C18.8503 48 14.0807 46.3788 10.1721 43.6183C9.01219 42.7994 7.92881 41.8815 6.9345 40.8744C2.64684 36.5397 0 30.578 0 24C0 17.422 2.64684 11.4603 6.9345 7.12556C7.98759 6.05981 9.14053 5.09288 10.3777 4.23872C14.2472 1.56534 18.9404 0 24 0C29.0596 0 33.7528 1.56534 37.6222 4.23872C38.5675 4.89019 39.4629 5.60916 40.3024 6.38794C41.7727 7.74759 43.0717 9.29044 44.1639 10.9792C45.0103 12.286 45.7323 13.6809 46.3142 15.1464C47.4024 17.8864 48 20.8732 48 24Z" fill="#E4BA42"/>
<path d="M36.6609 21.8409C35.993 19.9037 33.254 19.9037 32.7197 21.5069C32.1853 23.1101 33.989 24.0453 36.7946 24.9806C39.6003 25.9159 41.3372 28.3876 41.0032 30.5919C40.6691 32.7963 39.7339 35.6689 34.1894 35.6689C30.7241 35.6689 28.7983 33.503 27.8412 31.8787L30.9829 29.9907C30.9829 29.9907 32.0517 32.262 34.0557 32.262C36.0598 32.262 36.8614 31.594 36.8614 30.0576C36.8614 28.1872 30.3816 27.5192 29.3796 24.3127C28.3776 21.1061 29.7136 16.5637 34.3897 16.8976C37.3123 17.1064 38.9562 18.5415 39.7782 19.5885L36.6609 21.8409Z" fill="#F2F2F2"/>
<path d="M22.0982 17.2318C22.0982 17.2318 22.0982 28.5212 22.0982 30.0577C22.0982 31.5941 20.7621 32.3958 19.4261 32.1285C18.0901 31.8613 17.4889 30.2581 17.4889 30.2581L14.416 32.329C14.416 32.329 15.084 35.4018 19.2925 35.6691C23.501 35.9363 25.9058 33.3978 25.9058 31.2601C25.9058 29.1224 25.9058 17.2318 25.9058 17.2318H22.0982Z" fill="#F2F2F2"/>
<path d="M6.93449 4.23871V40.8744C7.92881 41.8815 9.01218 42.7993 10.1721 43.6183H37.8279C38.7546 42.9639 39.6323 42.2459 40.4562 41.4691H9.08371V6.38793H44.1638V37.0207C45.0102 35.714 45.7322 34.319 46.3141 32.8535V4.23871H6.93449Z" fill="#F2F2F2"/>
<path d="M8.23641 35.6023C10.3393 35.6023 12.0441 33.8976 12.0441 31.7947C12.0441 29.6917 10.3393 27.987 8.23641 27.987C6.1335 27.987 4.42876 29.6917 4.42876 31.7947C4.42876 33.8976 6.1335 35.6023 8.23641 35.6023Z" fill="#3F4A43"/>
</svg>
